<svg xmlns="http://www.w3.org/2000/svg" xmlns:xlink="http://www.w3.org/1999/xlink" width="1920" height="1080" viewBox="0 0 1920 1080"><defs><style>.a{fill:#fff;}.b{clip-path:url(#a);}.c{fill:url(#b);}.d{fill:#ca1928;}.e{fill:#58595b;opacity:0.06;}</style><clipPath id="a"><rect class="a" width="1920" height="1080"/></clipPath><linearGradient id="b" x1="0.5" x2="0.5" y2="1" gradientUnits="objectBoundingBox"><stop offset="0" stop-color="#ccc"/><stop offset="0.427" stop-color="#d0d0d0"/><stop offset="0.582" stop-color="#ecebeb"/><stop offset="0.787" stop-color="#dfdede"/><stop offset="1" stop-color="#d9d8d8"/></linearGradient></defs><g class="b"><path class="c" d="M0,0H1920V1080H0Z"/><rect class="d" width="1110" height="1080" rx="100" transform="translate(498.715 -1272.307) rotate(30)"/><rect class="d" width="838.543" height="1080" rx="100" transform="matrix(0.391, 0.921, -0.921, 0.391, 421.217, 913.42)"/><rect class="d" width="1110" height="1080" rx="100" transform="translate(2279.216 51.764) rotate(26)"/><path class="e" d="M71.084,323.16c-.483-.846-.932-1.644-1.381-2.446-.969,1.318-1.545,3.207-2.633,5.771a9.663,9.663,0,0,0,3.7-2.29Q70.923,323.661,71.084,323.16ZM68,382.57a54.222,54.222,0,0,1,4.857-3.511c-1.255-.727-2.458-1.44-3.58-2.153C68.86,378.785,68.437,380.666,68,382.57Zm-2.926-24.7c-.724-.1-1.444-.212-2.172-.319.126.883.145,1.778.349,2.646C63.87,359.434,64.464,358.64,65.076,357.868Zm7.512,44.313c.13-1.885-.42-3.938-2.469-6.328A1.4,1.4,0,0,1,70,395.27l-1.53.687a16.237,16.237,0,0,0,.26,1.859c1.066.861,2.131,1.718,3.39,2.72-.178.464-.364.939-.546,1.4C71.905,402.025,72.258,402.1,72.588,402.18Zm1.084,8.981a31.724,31.724,0,0,1-1.842,2.824,7.209,7.209,0,0,0,1.741,1.351C73.606,414.008,73.639,412.658,73.673,411.162ZM71.812,385c.33-1.047.706-2.164,1.118-3.526a13.344,13.344,0,0,0-3.654,6.246Q70.585,386.322,71.812,385Zm-2.584-32.856c.041.1.074.167.111.267l.137-.178C69.387,352.208,69.317,352.182,69.228,352.149Zm.4,59.451a17.534,17.534,0,0,1,1.686-4.984c-.479-.119-.947-.237-1.415-.36q-.819,2.1-1.645,4.216A6.655,6.655,0,0,1,69.629,411.6Zm1.4,38.957c.26-.943.524-1.9.776-2.821-.279-.115-.535-.215-.813-.334a5.373,5.373,0,0,1-2.722.657c-.111.8-.2,1.466-.3,2.23A17.851,17.851,0,0,1,71.029,450.557ZM590.085,111.973a26.019,26.019,0,0,0,4.107-2.943c5.243-3.912,8.689-3.1,9.959,2.869-1.485-.668-2.685-1.2-4.047-1.8.085,1.254.149,2.193.212,3.158-2.128-.07-4.014-.134-6.55-.211,2.551,3.533,4.534,6.283,6.584,9.126a20.107,20.107,0,0,1-8.7.494c.149.215.308.471.453.668l.026.03c.037.052.071.111.111.163a54.936,54.936,0,0,0,5.6,5.1c.746-.954,1.715-2.2,2.685-3.448,5.655,2.052,6.435,3.537,3.639,8.113a106.907,106.907,0,0,0,19.409,10.239l27.7-12.362c-.1-.045-.178-.085-.275-.122l.137-.063c-19.194-8.58-28.481-18.946-29.168-19.729-5.187-7.322-11.916-18.787-16.847-27.486q-3.977-2.249-7.958-4.509l-7.415,3.314c2.625,4.713,6.5,11.583,10.479,18.241.048.074.085.163.123.23a2.282,2.282,0,0,1-.906,2.876,2.256,2.256,0,0,1-3.045-.709c-4.081-6.821-8.047-13.865-10.679-18.6l-.019.007c-.037-.056-.078-.145-.119-.2l-13.338,5.953c3.093,5.585,7.958,14.166,12.681,21.885C587.088,113.372,588.466,112.745,590.085,111.973Zm28.874.438c-4.307-3.251-8.6-6.513-13.6-10.288C610.764,101.147,616.542,105.33,618.959,112.411Zm-6.818,6.558c-3.639,2.2-5.752,3.477-9.06,5.5-.045-3.262-.078-5.244-.108-7.233C605.558,117.729,608.139,118.2,612.141,118.969Zm-2.785-43.637a9.284,9.284,0,0,1-2.844-.249l-.873.386c.293.52.639,1.147.958,1.729A9.2,9.2,0,0,0,609.357,75.332ZM67.757,369.985l.089-.011a.489.489,0,0,1,.019-.119c-.03.011-.056.037-.082.044Zm-.1.33c.033-.111.071-.226.1-.33l-.5.033C67.4,370.115,67.52,370.211,67.661,370.315Zm9.387-25.942c1.051.765,2.1,1.522,3.153,2.282a24.913,24.913,0,0,1,2.985-3.27c-.308-.482-.6-.92-.91-1.414-1.355.074-2.811.156-4.244.241C77.713,342.911,77.375,343.642,77.048,344.374ZM69.788,466.738c-.167-.713-.368-1.5-.527-2.179-.356.739-.687,1.5-1.025,2.253A14.008,14.008,0,0,0,69.788,466.738Zm-3.271-5.868c.642.564,1.463,1.292,2.388,2.123-.2-.876-.39-1.767-.579-2.527.082-.282.145-.523.219-.809a15.943,15.943,0,0,0-1.79-.52C66.673,459.709,66.6,460.3,66.517,460.871Zm3.769-95.662q-1.019,1.447-2.031,2.9c-.13.575-.256,1.162-.39,1.744,1.051-.531,2.117-1.058,3.387-1.7-.3,1.325-.6,2.642-.895,3.964.338.223.665.442,1.014.668a34.171,34.171,0,0,1,4.913-1.147c-2.1-2.1-.917-5.949.134-9.616-1.225-.011-2.165-.026-3.88-.041-.23.33-.472.664-.7,1-.349,1.31-.654,2.32-.954,2.323C70.676,365.309,70.479,365.227,70.286,365.209ZM481.312,144.165c-1.4-.026-2.807-.041-4.215-.063,4.671,8.154,10.4,17.792,14.783,23.953.019.022,10.174,11.416,31.333,20.007l27.7-12.358c-19.368-8.662-28.674-19.15-29.2-19.766-2.855-4.012-6.186-9.323-9.435-14.741-.483-.52-.962-1.05-1.444-1.577.1-.1.2-.208.308-.312-3.828-6.439-7.441-12.845-9.885-17.243l-11.734,5.226c2.625,4.721,6.5,11.587,10.483,18.245.048.078.085.167.119.23a2.271,2.271,0,0,1-4.021,2.093c-4.1-6.862-8.091-13.947-10.735-18.709L472.014,135.1c1.2,2.153,2.651,4.75,4.263,7.575C479.782,142.268,480.224,142.732,481.312,144.165Zm-212.2,96.742c-1.017-1.778-1.5-2.646-2.544-4.483,2.982.861,5.351,1.548,7.8,2.253-2.525-4.357-4.8-8.4-6.561-11.568a4.845,4.845,0,0,1-.639-.59l-11.481,5.118c1.47,2.668,3.375,6.042,5.451,9.642C264.011,241.148,266.432,241.026,269.113,240.907ZM273.7,223.6l-1.181.527a7.7,7.7,0,0,0,1.329-.03C273.8,223.909,273.755,223.768,273.7,223.6ZM63.617,374.732c1.355.661,1.693.987,1.983.939a5.176,5.176,0,0,0,.583-.2l.145-.49c-.687-.468-1.3-.909-1.923-1.362C64.141,373.982,63.888,374.35,63.617,374.732Zm162-86.4c1.017.186,2.035.408,3.037.572a6.44,6.44,0,0,0,4.207-.609c3.795-2.539,11.834-2.23,14.537,1.262,3,3.882,6.866,5.255,11.515,5.482,1.426.074,2.815.839,4.924,1.5-8.878,5.422-21.259,4.387-27.738-1.718a6.751,6.751,0,0,1-.486,1.607,100.8,100.8,0,0,0,9.313,5.7c4.077-.635,9.476,2.075,14.374,3.7l2.677-1.2c-.174-.13-.349-.271-.52-.4.271-.5.538-1.017.806-1.51l3,.449,12.744-5.686c-1.482-2.616-3.011-5.2-4.552-7.775-12.391-7.167-18.581-14.014-18.99-14.507-3.943-5.537-8.8-13.531-13.086-20.9-1.144.174-2.284.356-3.461.534-.056-.482-.126-.969-.189-1.455,1.081-.319,1.912-.583,2.633-.824-2.454-4.261-4.686-8.235-6.357-11.245l-11.73,5.244c1.515,2.724,3.472,6.19,5.6,9.9,1.712-.059,3.427-.108,5.147-.16.03.746.067,1.5.1,2.242-1.344,0-2.7.011-4.04.011,1.188,2.06,2.41,4.149,3.658,6.246a1.2,1.2,0,0,1,.126.238,2.252,2.252,0,0,1-.9,2.865,2.286,2.286,0,0,1-3.123-.772c-.208-.353-.412-.709-.62-1.061-.609.308-1.136.52-1.318.356-1.266-1.147-1.894-3-2.778-4.58.349-.33.7-.646,1.047-.965l.011,0c-.453-.787-.895-1.551-1.337-2.316l-9.357.033c-.011-.59-.026-1.165-.037-1.744,2.755-.089,5.511-.167,8.27-.249-1.749-3.077-3.342-5.916-4.619-8.194l-13.342,5.953c4.764,8.566,13.68,24.246,19.855,32.952C224.628,287.313,224.966,287.691,225.616,288.333Zm-3.06,33.892,19.38-8.644q-3.8-1.926-7.6-3.823c.356-.705.705-1.41,1.062-2.115,3.123,1.47,6.249,2.969,9.372,4.45-.048.093-.093.189-.145.286l4.059-1.811a65.606,65.606,0,0,0-9.45-3.563c-7.868-2.171-16.264-2.472-24.418-3.585.041-.631.071-1.262.108-1.889,1.389-.293,2.837-.991,4.163-.816,6.483.85,12.462,3.715,19.309,2.95A86.654,86.654,0,0,1,223.8,292.857c-3.832.085-7.987-.6-8.574-6.617,1.3.26,2.48.508,3.713.768-6.309-9.423-14.084-23.129-18.34-30.789l-11.727,5.233c2.343,4.227,5.707,10.173,9.231,16.144.037-.033.067-.074.1-.111.045.178.074.312.119.486.334.579.672,1.147,1.014,1.722a1.984,1.984,0,0,1,.13.245,2.148,2.148,0,0,1-.208,1.963c.624,2.579,1.2,4.958,1.69,7-1.727,2.72-3.238,5.11-4.638,7.319-2.477-2.85-5.035-5.819-7.159-8.28,2.139-2.464,3.951-4.561,5.815-6.71-3.932-6.621-7.724-13.349-10.267-17.918l-13.338,5.957c4.76,8.569,13.676,24.246,19.859,32.956C191.246,302.239,201.4,313.648,222.556,322.225Zm-13.743-50.11c-1.552,4.435-2.763,7.92-4.456,12.774C201.494,275.269,202.022,273.856,208.813,272.115Zm-10.564,27.619c2.087,3.117,7.8-.794,8.737,4.9C198.138,303.679,198.138,303.679,198.249,299.734ZM451.958,144.05l-2.113.95c.88.022,1.819.052,2.685.085C452.352,144.755,452.125,144.365,451.958,144.05Zm6.773,1.225c-.241.134-.446.241-.683.364,2.432,4.327,5.444,9.612,8.548,14.789.045.089.089.174.123.249a2.218,2.218,0,0,1-.7,2.605c.7.824,1.355,1.622,1.89,2.234-4.7,2.516-9.138,3.8-11.916,6.68a8.054,8.054,0,0,1-3.167,2.171c2,3.2,3.929,6.179,5.644,8.592.03.022,10.189,11.423,31.34,20.015l27.7-12.362c-19.38-8.658-28.678-19.165-29.2-19.766-1.578-2.212-3.3-4.836-5.076-7.638a94.13,94.13,0,0,1-9.506-.39c-.791-.1-1.359-1.874-2.035-2.869,1.155-.538,2.436-1.7,3.435-1.5a47.767,47.767,0,0,1,6.357,1.96c-3.364-5.452-6.78-11.316-9.662-16.382-1.27-.022-2.536-.045-3.806-.056,1.3-.223,2.417-.412,3.45-.583-1.352-2.379-2.6-4.6-3.617-6.428l-11.727,5.237c.516.924,1.114,1.989,1.712,3.047C458.134,145.26,458.423,145.271,458.731,145.274ZM473,188.407c-7.207-1.488-7.207-1.488-7.738-4.531C472.924,186.136,472.924,186.136,473,188.407ZM319.562,232.259c-.486.078-.847.174-1.266.271,2.31,3.756,4.571,7.274,6.547,10.054.033.022,10.189,11.423,31.344,20.019l27.7-12.366c-19.376-8.658-28.685-19.154-29.2-19.763-6.576-9.241-15.715-25.341-20.449-33.884l-5.926,2.642c1.511.119,3.045.286,4.619.531-2.05,2.353-3.546,4.071-5.247,6.042-.9-1.162-1.548-2-2.195-2.832-.286.5-.572,1-.85,1.492,1.686.768,3.364,2.164,5.065,2.2,4.627.089,9,.675,11.838,4.654.6.831-.479,4.116-.75,4.1a38.293,38.293,0,0,1-7.007-.987c-1.029-.215-2.065-1.176-2.982-1.039a8.774,8.774,0,0,0-1.463.482c1.181,2.041,2.4,4.112,3.632,6.19a1.436,1.436,0,0,1,.134.245,2.259,2.259,0,0,1-.913,2.865,2.294,2.294,0,0,1-.438.16c2.094,3.058,3.669,7.1,9.083,4.847-3.238,5.686-8.7,4.03-12.941,5.34-5.648,1.744-7.111-5.4-11.485-6.435-.253.375-.494.735-.746,1.1.115.2.23.39.345.586C317.018,229.762,318.062,230.786,319.562,232.259ZM435.13,173.436c1.76-.148,3.606.724,5.421,1.136a34.145,34.145,0,0,1-3.078,4.7,47.9,47.9,0,0,1-5.24,4.287c-.156-.2-1.173-1.492-2.187-2.787-.33.349-.653.709-.984,1.061.431,1.54.85,3.069,1.225,4.4-2.978.252-5.826.88-8.581.616-1.277-.123-2.622-.156-3.936-.249,1.359,2.23,2.7,4.357,3.992,6.365l3.68,2.119c-.189.338-.382.668-.572,1-.371-.045-.754-.093-1.121-.141.442.646.895,1.347,1.314,1.93.033.015,10.182,11.408,31.34,20.011l27.7-12.373c-19.38-8.651-28.681-19.143-29.2-19.755-3.717-5.218-8.236-12.611-12.324-19.618a16.028,16.028,0,0,1-4.092,1.332c-1.638.141-3.327-.36-5.358-.635,1.043-5.856,2.748-7.642,6.5-5.786-.676-1.173-1.311-2.294-1.935-3.385-4.17.434-8.3.894-12.224,1.318-.379-.872-.761-1.733-1.136-2.6l-1.619.72c2.432,4.383,5.952,10.607,9.621,16.8A24.949,24.949,0,0,1,435.13,173.436Zm24.188-16.419c-1.927-3.3-3.736-6.491-5.3-9.267-2.443,1.28-4.764,2.5-6.936,3.641,3.828,1.425,7.044,2.164,9.759,3.771A23.22,23.22,0,0,1,459.318,157.017ZM330.553,230.7c-.8-3.763-1.274-6.046-1.764-8.332.056-.052.108-.111.167-.167-1.17-1.96-2.313-3.915-3.435-5.834a10.284,10.284,0,0,0-2.2,4.491c-.379,1.7,1.779,4.071,3.06,5.968C327.137,227.951,328.4,228.741,330.553,230.7ZM322.774,277.5l27.7-12.359c-19.372-8.662-28.681-19.154-29.209-19.763-2.544-3.589-5.473-8.2-8.388-13.008-2.885-.664-5.756-1.425-8.633-2.134-2.9-.724-6.4-2.539-9.027-2.691,1.407,2.431,2.852,4.929,4.341,7.419a2.746,2.746,0,0,1,.134.245,2.27,2.27,0,0,1-4.022,2.089c-1.7-2.843-3.353-5.693-4.935-8.432-5.065,1.559-9.974.111-14.913.364-.59.026-1.1-.019-1.641-.033,4.976,8.807,12.072,20.984,17.259,28.3C291.46,257.518,301.627,268.916,322.774,277.5Zm-17.211-18.916c8.221-.5,9.781.167,9.1,4.413-3.268-1.05-6.443-2.067-9.61-3.088C305.225,259.471,305.4,259.036,305.563,258.587Zm-20.312-19.9c.709-1.948,1.329-3.644,2.518-6.936,1.218,3.6,2.013,6,3.034,9.041C288.582,239.942,286.892,239.311,285.251,238.684Zm-120.1,59.028a2.256,2.256,0,0,1-3.108-.776c-2.967-4.966-5.852-10.009-8.236-14.244-1.1,10.488-3.929,15.124-7.709,13.557a11.153,11.153,0,0,0-1.586-.523c3.089,5.329,6.469,11.008,9.606,15.877.241.115.546.263.743.36,5.767-3.555,6.7.074,7.326,4.279,1.27.03,2.588.063,3.906.1.108.579.215,1.162.323,1.752-2.41.2-5.087,1.165-7.178.468a72.352,72.352,0,0,0,5.863,4.973,23.349,23.349,0,0,1,6.944-10.206c-1.136,4.494-2.2,8.722-3.257,12.882.457.319.843.612,1.329.939q4.506-.184,9.012-.353c.019.783.03,1.574.048,2.375q-2.824.045-5.655.093a107.065,107.065,0,0,0,15.622,7.872l27.7-12.351a99.564,99.564,0,0,1-24.441-15.205c-.345.624-.661,1.184-1.025,1.848.349.315,1.185,1.061,2.02,1.793-1.482,1.841-2.8,3.47-3.929,4.88-4.79-.226-9.848.546-12.588-5.667,3.379-.713,6.613-1.4,9.855-2.086-.331-.263-.65-.538-.973-.805,1.017-1.095,2-2.249,3.037-3.307-.616-.635-1.069-1.117-1.159-1.221-6.572-9.245-15.718-25.341-20.456-33.884l-11.73,5.233c2.625,4.721,6.5,11.587,10.475,18.241.056.085.089.16.134.237A2.281,2.281,0,0,1,165.153,297.712Zm2.941,5.574c-.015-4.981-.03-9.412-.03-13.843.687.152,1.374.308,2.061.456-1.311,5.092,4,11.809-1.853,15.68-.795.531-2.135-.319-3.223-.534-.015-.267-.022-.534-.033-.8C166.178,303.88,167.336,303.512,168.094,303.286ZM535.451,127.212c-.1-.5-.2-1.021-.3-1.529-1.8-.56-3.606-1.117-5.659-1.744,2.592-4.275,6.636-2.565,9.1-1.351a52.711,52.711,0,0,1,7.089,3.693c-1.389-2.3-2.752-4.621-4.066-6.877a14.093,14.093,0,0,1-7.438-4.324c1.326-.568,2.636-1.176,3.947-1.755-1.288-2.279-2.484-4.409-3.461-6.176l-11.73,5.229c2.358,4.246,5.741,10.239,9.287,16.233C533.365,128.114,534.423,127.661,535.451,127.212ZM113.735,303.468c.739.924,1.534,1.878,2.3,2.813a19.748,19.748,0,0,0,3.591-5.6,18.454,18.454,0,0,1-1.816,7.768c.576.709,1.136,1.388,1.715,2.1-.4.319-.806.653-1.214.98a10.994,10.994,0,0,1-1.764-1.006,10.931,10.931,0,0,1-3.717,3.073q.718,1.219,1.441,2.438a13.717,13.717,0,0,1,2.258-2.153c-.319,1.707-1.025,4.153-.761,4.372,2.6,2.164,3.026,3.589,2.659,4.628,1.456,2.334,2.878,4.58,4.218,6.569,2.8.672,5.607,2.223,8.44.007.137-.115,1.485.709,1.5,1.128.3-.43.6-.85.865-1.225a6.526,6.526,0,0,1,1.612-4.494l-12.863-4.361c1.107-4.272,4.679-6.12,9.736-5.586.4-.256.8-.516,1.01-.646-.059-1.087-.115-2.141-.171-3.173a2.232,2.232,0,0,1-1.032,1.511,2.258,2.258,0,0,1-3.112-.776c-1.3-2.164-2.555-4.32-3.784-6.45-1.437-1.54-2.707-3.229-3.851-4.669.29-.252.524-.445.787-.672-.787-1.381-1.526-2.694-2.213-3.927-1.333.46-2.666.905-4.029,1.369C115,299.315,114.377,301.36,113.735,303.468ZM74.412,465.974c.271-.056.55-.119.821-.171a.958.958,0,0,0-.694-.367C74.489,465.617,74.452,465.792,74.412,465.974ZM72.269,476.08c-1,1.117-1.961,2.193-2.911,3.247-.331.015-.657.026-.984.026.579-1.822.969-3.956,1.619-5.686l-6.543,2.921,3.542,7.938a42.8,42.8,0,0,0,8.489-.868,56.652,56.652,0,0,1-3.06-7.1C72.366,476.41,72.328,476.243,72.269,476.08ZM75.3,465.866l-.007-.074-.063.011C75.251,465.833,75.3,465.84,75.3,465.866Zm-11.734-85.2a2.862,2.862,0,0,1,1.121.037q.674-2.372,1.348-4.724c-1.177.765-2.365,1.484-3.561,2.2.23.75.457,1.514.687,2.26C63.3,380.507,63.431,380.588,63.569,380.663ZM67,424.419a6.661,6.661,0,0,1,.226-1.971,5.2,5.2,0,0,0-2.506-1.737c-.145-.03-.267-.071-.408-.1-.3.768-.6,1.533-.895,2.3.642.52,1.474,1.2,2.755,2.249-1.329,1.3-2.57,2.509-3.828,3.734l4.538-2.026A12.1,12.1,0,0,0,67,424.419ZM555.451,115.577c.319.334,1.133.256,1.381.6.824,1.188,1.511,2.483,2.87,4.8-4.252-.928-8.448-.709-12.406-.846,3.873,6.595,8.032,13.379,11.389,18.107l.033.03c.03.048.071.1.108.16.019.015,5.384,6,16.368,12.566.542-.111,1.084-.223,1.619-.338.137.408.267.824.394,1.232a2.944,2.944,0,0,1-.334.085,110.519,110.519,0,0,0,13.29,6.465l27.7-12.362c-.1-.052-.178-.089-.264-.126l.13-.059a101.187,101.187,0,0,1-22.777-13.817l-.041,0c-3.91.189-7.835.1-11.745.115-.067.453-.134.906-.193,1.366,1.574,1.254,3.153,2.505,5.087,4.038-6.71,1.31-9.929-1.826-11.816-10.143,3.661.894,7.649,1.889,12.614,3.11-1.218-2.412-1.63-3.236-2.235-4.428.91.256,1.712.479,2.566.713-.327-.341-.553-.594-.631-.687-1.066-1.507-2.213-3.236-3.386-5.036-3.472-1.091-6.955-2.423-10.627-3.273,2.247-.583,4.163-1.08,7.349-1.9-.078-.137-.163-.271-.249-.4-3.015-1.117-4.939-1.833-6.81-2.527A32.34,32.34,0,0,1,579.3,111.7c-4.267-7.1-8.392-14.407-11.1-19.273l-.026.011c-.033-.059-.078-.141-.108-.193l-11.73,5.229c1.857,3.348,4.359,7.786,7.063,12.444,2.755-.872,4.779-1.507,6.754-2.134q.245,4.353.475,8.7c-.438.171-.873.33-1.318.5-1.129-.976-2.269-1.952-3.561-3.058.353.594.7,1.188,1.062,1.785a2.651,2.651,0,0,1,.126.249,2.264,2.264,0,0,1-3.966,2.156c-4.07-6.829-8.039-13.858-10.664-18.6l-.026.015c-.033-.067-.082-.145-.108-.2l-13.353,5.96c1.025,1.837,2.261,4.042,3.606,6.395C548.563,109.776,550.62,110.515,555.451,115.577ZM570.4,131.751c.048.03.108.052.156.085l.089.122c6.053,1.2,7.764,3.073,6.283,8.874q-3.147-4.442-6.283-8.874c-.056-.011-.1-.026-.152-.037l-.093-.171c-3.9-1.993-7.794-4-11.916-6.113C563.2,123.074,567.215,125.289,570.4,131.751ZM104.868,308.923c-.65-1.143-1.251-2.212-1.845-3.27-.33.2-.657.412-.991.616.275.7.561,1.4.854,2.1C103.553,308.586,104.211,308.76,104.868,308.923ZM73.179,451.4c1.857-.1,3.4-.189,4.668-.264-.2.891-.4,1.722-.605,2.616,2.068-.063,4.222-.338,5.886.33.223-.46.438-.917.657-1.373-3.127-1.3-6.409-2.665-9.9-4.112C73.65,449.514,73.435,450.368,73.179,451.4ZM113.943,308c-2.261-2.988-3.279-6.873-5.095-10.355,1.578-.5,3.056-.987,4.515-1.459-.2-.249-.4-.512-.605-.768l-7.111,3.173c-.011.779-.019,1.607-.03,2.409,1.374,2.453,2.967,5.27,4.712,8.3A9.18,9.18,0,0,0,113.943,308Zm-7.222,19.239c1.868-.078,3.379-.141,5.043-.208a12.821,12.821,0,0,1,.048-6.254c-1.181-1.963-2.351-3.919-3.487-5.871a21.051,21.051,0,0,1-5.433.015c.245,2.119.91,4.235.616,6.016a52.516,52.516,0,0,1-2.313,8.877c.059.033.126.071.182.1,4.085-10.228,4.248-10.3,7.965-9.349-2.855,3.537-5.269,6.543-7.668,9.519.152.085.308.186.468.267-.2.479-.412.954-.609,1.433-.423,0-.884.015-1.318.022a25.96,25.96,0,0,0-2.12,2.078c3.7,2.164,7.408,3.912,10.62,6.231C108.05,335.845,107.4,331.6,106.721,327.235ZM96.78,465.061c-1.04-.1-2.035-.249-3.041-.378a13.389,13.389,0,0,0-.007,1.859c.212,3.021-2.67,6.239-4.341,9.512,2.287-1.139,4.311-1.978,4.419-3.258a11.855,11.855,0,0,1,3.115-7.007C96.881,465.547,96.829,465.306,96.78,465.061Zm-.594,12.793a18,18,0,0,0,.843-3.114,11.457,11.457,0,0,0-.442,1.451C96.454,476.74,96.316,477.3,96.186,477.854Zm264.47-261.909c0,.661-.011,1.329-.015,2q-4.384-.006-8.767-.022c2.254,3.633,4.448,7.055,6.376,9.761.03.022,10.178,11.412,31.336,20.007l27.7-12.359c-19.372-8.658-28.681-19.158-29.2-19.759-.62-.872-1.277-1.852-1.935-2.832-1.8.816-3.724,1.678-6.012,2.717,3.643,1.841,6.209,3.155,8.775,4.457-.3.586-.594,1.177-.888,1.774-1.827-.642-3.684-1.206-5.47-1.937-4.163-1.715-4.493-3.945-1.771-7.523.746-.98.576-3.162.048-4.483-.538-1.351-2.027-2.316-3.643-4.012,1.292.1,2.4.2,3.42.334-3.918-6.391-7.865-13.249-10.869-18.612a6.49,6.49,0,0,1-2.027-.824,19.917,19.917,0,0,1-2.421-1.9l-9.395,4.19c2.629,4.728,6.506,11.587,10.483,18.237.045.093.085.171.119.252a2.151,2.151,0,0,1-.39,2.219l8.763,1.826c-.193.8-.386,1.6-.587,2.394q-4.974-1.331-9.937-2.668c.048-.2.1-.4.149-.612a2.274,2.274,0,0,1-2.02-1.069c-4.1-6.881-8.091-13.958-10.735-18.723l-13.349,5.964c3.034,5.474,7.772,13.843,12.41,21.44Q355.725,216.063,360.656,215.945ZM422.334,359.82l.022.015c8.749-.713,17.508-1.488,26.242-2.063-.487-1.551-.954-3.08-1.415-4.617-3.179.854-6.171,1.659-8.878,2.383-1.66-1.841-2.852-3.184-4.044-4.509-.7.264-1.4.538-2.094.8.26,1.915.524,3.834.858,6.242-2.733-.75-4.783-1.318-7.085-1.945C424.7,357.408,423.515,358.61,422.334,359.82Zm30.022,9.575c-2.915-1.247-5.852-2.5-9.168-3.919,2.48-1.544,3.832-2.383,5.213-3.244-2.848-.271-5.592-.52-8.9-.835,1.006,3.129,1.916,5.938,3,9.263-.55.538-1.411,1.377-2.4,2.345.409,1.236.795,2.394,1.185,3.548,2.473,1.637,4.942,3.273,7.378,4.891.553-.464,1.114-.935,1.667-1.4-1.084-1.061-2.172-2.123-3.108-3.028,2.139-1.44,4.319-2.895,6.29-4.212C453.132,371.7,452.757,370.583,452.356,369.4ZM352.071,413.912c-1.1.1-2.269.375-3.405.538.356,1.128.706,2.26,1.162,3.726-8.949,2.694-4.307-2.891-3.936-6.35-2.5.668-4.746,1.273-7.312,1.96,1.875,5.782,3.713,11.171,5.024,14.934l8.507-3.793a21.1,21.1,0,0,0-1.259-1.833,30.221,30.221,0,0,1,3.91-1.258C353.976,419.568,353.067,416.9,352.071,413.912ZM424.9,387.7c.512,1.507,1,2.906,1.418,4.12l6.7-2.991a6.06,6.06,0,0,0-1.04-1.819C431.3,386.233,427.948,387.243,424.9,387.7Zm38.028-12.229,1.5-.668c-.2-.015-.338-.074-.564-.078C463.51,375.007,463.236,375.229,462.924,375.47Zm57.218-33c-.55-1.637-1.125-3.351-1.723-5.174-1.842-.7-3.669-1.4-5.5-2.1.342-.583.694-1.173,1.047-1.767a18.572,18.572,0,0,0,3.658,1.462c-2.74-8.387-5.652-17.862-7.215-24.736a67.14,67.14,0,0,1,.308-14.79c-4.7,1.113-7.471,3.44-7.408,6.183-3.435.917-6.858,1.837-10.3,2.769.007-2.279.007-4.235.015-4.628l17.935-6.176a105.683,105.683,0,0,1,4.189-18.486l-27.712,12.359c-7.753,21.525-5.989,36.69-5.963,36.883,1.909,8.425,6.1,21.366,9.305,30.874,3.7.542,7.4,1.08,11.3,1.659-.564-2.334-1.047-4.313-1.667-6.832a10.546,10.546,0,0,0,2.358.839c.631.011,1.266,0,1.9,0-1.623-4.747-3.561-10.57-5.377-16.4a2.273,2.273,0,0,1,4.244-1.6,2.05,2.05,0,0,1,.093.252c1.452,4.654,2.971,9.263,4.348,13.372.275-.134.535-.252.78-.379a13.6,13.6,0,0,0,2.878-1.655C516.046,340.417,516.536,339.968,520.142,342.473Zm-20.776-33.531q5.052,2.043,10.044,4.056C500.053,313.6,497.309,312.278,499.366,308.942ZM509.477,350.8c.1,0,.2.007.3,0,.111-.572.234-1.139.342-1.7-.42-.108-.888-.226-1.341-.334C509.02,349.488,509.247,350.148,509.477,350.8ZM477.064,312.92c-2.726,1.945-4.411,3.147-6.357,4.531-2.336-.746-4.679-1.5-8.667-2.765,5.678-.932,9.744-1.592,15.087-2.468a103.5,103.5,0,0,1,4.619-22.29l-13.409,5.979a9.049,9.049,0,0,1,.936.445c-.887.1-1.73.2-2.577.289l-8.615,3.849c.26.308.527.627.78.932-.4.456-.795.935-1.2,1.418-.795-.356-1.612-.72-2.428-1.076l-1.2.534c-7.746,21.518-5.989,36.679-5.967,36.879.694,3.054,1.7,6.736,2.848,10.614a17.549,17.549,0,0,1,1.883,1.856c-.446.119-.8.212-1.237.334,1.107,3.685,2.3,7.463,3.491,11.078a2.188,2.188,0,0,0,.557.375,44.911,44.911,0,0,0,15.663,2.29c-.223-.646-.46-1.351-.694-2.049-1.051-.007-2.1-.007-3.153-.015a7.585,7.585,0,0,1-3.517-.482c-2.818-1.726-5.4-3.685-7.371-5.066.212-2.865.379-5.2.546-7.526q.54-.49,1.069-.98c1.1,1.388,2.2,2.769,3.669,4.635.973-.271,2.744-.746,4.994-1.351-.431,2.39-.765,4.287-.991,5.574,1.047.041,2.035.078,3.056.115-.988-3-2-6.116-2.982-9.275a2.269,2.269,0,0,1,4.237-1.6,1.335,1.335,0,0,1,.1.249c1.147,3.7,2.35,7.378,3.487,10.807l8.188.315c.746-1.351,1.593-2.858,2.692-4.836.386.059.758.111,1.14.171-3.119-9.33-6.884-21.173-8.73-29.349A64.45,64.45,0,0,1,477.064,312.92Zm58.053,24.339c-1.589.167-3.494,2.876-5.251,4.435a.338.338,0,0,1-.082-.041c-.479,1.5-.962,3-1.482,4.643l11.574-5.162c-.338-.969-.743-2.145-1.14-3.322A8.122,8.122,0,0,0,535.117,337.259Zm-59.1,28.306c2.079-.163,4.174-.39,6.3-.727a36.8,36.8,0,0,0-6.884-1C475.631,364.437,475.82,365,476.013,365.565ZM234.791,476.15c-3.854-.59-7.53-1.143-11.247-1.7.36,1.061.72,2.141,1.058,3.11,1.9.572,3.866,1.165,5.707,1.718l8.916-3.967c-.386-1.11-.839-2.427-1.3-3.793C236.934,473.125,236.217,474.948,234.791,476.15Zm-58.439-16.916c-.041-.263-.182-1.692-.238-3.915-1.288-.364-2.744-.371-5.161.52-5.73,2.112-12.061,2.286-18.136,3.284-1.749.416-3.435,1.833-5.251,2.969-.111,1.228-.174,2.3-.223,3.348,1.326-.23,2.365-.661,2.729-1.351,2.644-4.943,5.232-3.255,8.633-2.349-.932.954-1.712,1.763-2.677,2.765,1.526.416,2.87.768,4.207,1.136-.126.434-.245.865-.371,1.3-3.958.494-7.95,1-12.621,1.574a47.788,47.788,0,0,0,.167,4.825c.067.289.16.638.234.939a16.737,16.737,0,0,0,4.278-1.3c3.984-1.781,7.679-4.264,11.712-5.834a10.321,10.321,0,0,1,6.339.178c.78.249.3,2.334.442,4.2,1.229.011,3.16.011,5.852.026-.795-2.16-1.274-3.477-1.938-5.281,1.255-.23,2.417-.442,3.646-.675C177.358,463.339,176.79,461.157,176.352,459.234Zm73.423,11.186c.011-8.083-4.7-8.684-10.223-8.284.464,1.407.906,2.735,1.352,4.034,1.344,0,2.974.182,4.281.137.074.664.152,1.325.238,1.974a9.036,9.036,0,0,0-3.739.208c.613,1.815,1.2,3.5,1.69,4.914.085-.03.174-.052.26-.074l11.485-5.125c-.26-.739-.568-1.633-.861-2.49C253.109,466.913,251.8,468.29,249.774,470.42Zm67.927-44.5q-2.607.211-5.213.442l-.171-.932c1.556-.5,3.134-1.009,4.723-1.525-2.235-6.862-4.545-14.352-6.142-20.579-7.089-.557-13.19-2.8-19.413-4.784.241-.52.46-1.021.694-1.533q8.89,1.124,17.761,2.253c-.048-.4-.119-1.2-.178-2.524-1.686-.3-3.364-.6-5.035-.92a8.1,8.1,0,0,1,4.159-1.574c.275-.056.553-.145.832-.208a81.826,81.826,0,0,1,.49-8.514c-.847-.846-1.79-1.781-2.926-2.947,1.222.041,2.295.074,3.283.115a106.566,106.566,0,0,1,4.148-18.222L287,376.832c-.42,1.165-.706,2.23-1.073,3.355q5.475-.089,10.936-.182c-.223.805-.446,1.607-.676,2.412-4.46,2.676-7.764,1.481-11.2.705-.925,3.132-1.69,6.112-2.25,8.863.438,2.164.813,4.038,1.177,5.842-.386.319-.769.627-1.159.95-.353-.282-.7-.583-1.055-.868-.23,1.648-.379,3.117-.509,4.535.52-.115.977-.219,1.5-.341-2.837,5.259-1.2,10.811,2.674,10.4,3.045-.338,6.372-3.014,10.843-5.3,3.175.508,8.24,1.318,13.3,2.123-.156.583-.312,1.147-.479,1.722-3.056.223-6.231-.1-9.149.8-4.185,1.306-5.325,3.63-4.259,5.749,2.57-1.217,5.191-2.457,7.816-3.693.167.378.334.757.516,1.143-1.641,2.156-3.283,4.309-4.879,6.421-5.451-.126-10.8-.252-16.145-.438.23.809.446,1.6.694,2.438a10.681,10.681,0,0,1,1.741.052,116.309,116.309,0,0,0,12.024,1.3,11.692,11.692,0,0,0,1.7-.241c-.074-.249-.16-.494-.234-.735a2.269,2.269,0,0,1,4.237-1.6,1.375,1.375,0,0,1,.1.249c.122.4.252.8.379,1.2.487-.126.973-.267,1.444-.364.683-.215,1.359-.419,2.042-.638.119,1.7-1.006,3.04-2.436,4.3.628,1.96,1.244,3.849,1.857,5.686,2.521-1.6,4.129-2.631,5.477-3.481,2.837,1.737,5.031,3.077,7.222,4.42.3-.2.59-.412.887-.616Q318.962,429.733,317.7,425.918ZM212.17,453.567c-6.376,1.789-12.458,3.092-16.8-1.811.835-1.087,1.741-2.294,3.394-4.468-3.543,1.325-5.852,2.531-8.169,2.98-2.674.5-5.915,1.095-7.939.349-.639-.245-1.251-.542-1.864-.817-.082,1.462-.13,2.746-.137,3.845,1.589,1.21,3.141,2.453,4.738,3.656a10.2,10.2,0,0,1-4.671-.219c.048.772.1,1.321.1,1.355.423,1.9,1,4.068,1.63,6.339,5.993-1.11,11.853-2.2,17.627-3.221a2.375,2.375,0,0,1,1.664.5,30.2,30.2,0,0,0,14.89,5.96C215.081,463.268,213.518,458.254,212.17,453.567Zm64.63,4.962,1.185-.527-1.478-.3C276.6,457.961,276.711,458.288,276.8,458.529Zm30.159-24.409c1.218,3.667,2.354,6.962,3.234,9.5l6.858-3.054C315.262,437.382,313.093,434.361,306.959,434.12Zm-30.59-4.877a7.75,7.75,0,0,1,2.963-4.3c-.431-1.5-.832-2.939-1.218-4.353a20.039,20.039,0,0,1-2.428-1.336c-3.394-1.989-6.461-2.483-10.947,1.217-5.072,4.175-10.65,4.2-15.581.783,1.723-.267,4.255-.4,4.378-.72,2.781-7.385,5.737-2.561,6.9-2.2,5.589-1.726,9.981-4.068,13.583-3.93a10.824,10.824,0,0,1,2.644.471c-.03-.119-.067-.256-.089-.36a46.445,46.445,0,0,1-.267-6.276.407.407,0,0,0-.082-.078c-3.464-.108-7.089-.223-10.728-.334.119-.646.226-1.28.342-1.919,3.457-.787,7-1.585,10.679-2.409.186-2.6.542-5.611,1.1-8.955-1.159-.958-2.313-1.9-3.472-2.858.219-.471.442-.935.665-1.4,1.222.078,2.429.163,3.587.249.512-2.453,1.162-5.055,1.942-7.779a9.727,9.727,0,0,0-1.548.234c.245-.894.49-1.8.739-2.7l1.526-.033c.093-.3.152-.579.252-.894L253.6,391.737c-.538,1.492-.932,2.88-1.374,4.3,4.341.056,8.128.108,12.759.16-6.223,4.91-10.145,5.756-13.624,2.531-5.091,17.725-3.747,29.72-3.724,29.891.932,4.116,2.417,9.33,4.055,14.689.46-.126.921-.264,1.482-.445,5.057-1.637,7.861-.6,10.178,2.513-2.807,2.275-6.762,4.568-9.476,4.832.178.542.345,1.095.527,1.633,4.571.683,8.4,1.254,12.172,1.815.661.716,1.314,1.432,1.975,2.153-2.065,1.518-3.981,3.374-6.264,4.405a5.3,5.3,0,0,1-4.53-.661c-.457-.457-.873-.946-1.292-1.458q1.348,4,2.417,7.085a67.264,67.264,0,0,1,8.024-4.468c.657.427,1.266.935,1.9,1.388l2.547-1.132a1.813,1.813,0,0,1-.609-.23c-1.329-1.061-1.593-3-2.313-4.565.847-.182,1.7-.375,2.551-.557-1.359-3.982-2.959-8.8-4.538-13.754-3.6-.861-6.784-1.51-9.688-2.475-1.381-.453-2.206-1.7-3.283-2.59,1.73-.5,3.613-1.477,5.169-1.421,2.688.078,5.358.319,8.2.59.041-.007.071-.048.115-.056a2.208,2.208,0,0,1,1.749.245c1.3.126,2.64.256,4.051.382-.954.965-1.738,1.755-2.458,2.479,1.764,5.578,3.594,11.067,5.1,15.472,1.355-1.065,3.2-2.869,3.721-2.72a53.1,53.1,0,0,1,6.8,2.691l2.607-1.162c-1.767-5.07-4.59-13.346-7.159-21.615C278.671,431.96,275.474,432.717,276.369,429.243Zm-18.544-3.4c4.7,1.689,8.641,3.1,12.577,4.52C258.155,429.811,258.155,429.811,257.825,425.847Zm-40.716-3.485a5.138,5.138,0,0,1-.817-2.16,92.361,92.361,0,0,0-2.191,16.445,11.136,11.136,0,0,1,1.734.635c5.388,3.025,10.126,1.407,15.722-1.206,1.025,1.384,1.972,2.668,2.6,3.507-6.606,1.191-12.944,2.338-19.792,3.566,1.125,1.2,2,2.156,2.967,3.2-.791.4-1.474.753-2.131,1.087.234.924.509,1.908.787,2.884.951.5,1.857.98,2.759,1.459-.735.171-1.467.371-2.206.572,1.482,5.162,3.271,10.818,4.983,16.051,4.972.338,9.543,3.414,15.243-.293-.6-1.77-1.218-3.615-1.86-5.574a22.768,22.768,0,0,1-5.911-.115c2.013-.635,3.739-1.139,5.347-1.577-.765-2.36-1.537-4.765-2.295-7.185a2.276,2.276,0,0,1,4.248-1.611,1.8,1.8,0,0,1,.089.26c.795,2.55,1.6,5.066,2.41,7.53,5.191-.906,8.771-.256,14.181,2.138-1.5-4.435-3.234-9.672-4.894-15.008-1.949-.572-4.163-.464-5.808-1.5.137,1.035.279,2.067.394,2.85l-9.762,1.7c-.264-1.882-.479-3.433-.616-4.409,4.523-2.078,8.737-4.012,13.509-6.2-1.043-3.618-1.968-7.059-2.636-9.994-.093-.753-1.062-9.66,1.682-23.262-.241-.193-.55-.438-.691-.542-6.216,2.539-11.552,4.713-16.524,6.743-2.05-2.438-3.1-5.782-5.626-6.227-.167-.041-.293-.067-.446-.1l-1.363.609c-.252.694-.412,1.321-.642,2,.583-.082,1.17-.163,1.753-.241-1.129,1.47-2.046,2.672-2.885,3.782-.338,1.1-.68,2.2-.965,3.251,1.237-.416,2.469-.82,3.706-1.24-.564,1.941-1.14,3.875-1.808,6.15,1.162.761,2.57,1.674,3.984,2.605-.483.594-.962,1.191-1.448,1.8C220.239,423.977,218,423.572,217.109,422.363ZM705.2,261.426c-1.032.961-2.087,1.945-3.108,2.9l.011.033a27.49,27.49,0,0,1,3.457-1.863C705.445,262.161,705.319,261.775,705.2,261.426Zm-17.731,7.664c-3.494.854-7.022,1.34-10.531,1.963.791-.85,1.623-2.264,2.373-2.375,4.946-.716,5.028-3.192,5.161-4.357-3.561-.976-5.834-1.566-8.05-2.245-.178-.056-.019-.627,0-1.225,1.363-.367,2.737-.731,4.772-1.284-1.582-.627-2.6-1.028-2.7-1.065.564-3.18,1-5.719,1.556-8.848,1.222.757,1.82,2.29,2.443,3.734-1.864-5.994-3.606-11.98-4.734-16.823-1.723.713-3.223,3.173-5.154,4.506-.082-1.9.253-4.12,1.522-4.791a23.722,23.722,0,0,1,3.353-1.358c-.3-3.451-.895-16.408,4.835-34.24l-.219.089c.03-.1.052-.186.082-.286l-14.058,6.272c-.071.427-.145.857-.219,1.288-.884,0-1.768,0-2.651-.007l-10.783,4.821c-7.746,21.518-5.989,36.682-5.971,36.879.241,1.043.538,2.212.843,3.388.55-1.841,1.077-3.57,1.582-5.259,1.775,5.337,2.061,6.38-.694,8.558,1.047,3.774,2.28,7.872,3.576,11.961,2.087-.894,4.166-1.8,6.275-2.6,2.187-.835,4.72-1.96,6.68-1.811.349.022.668.156,1.021.2-.442-1.369-.888-2.743-1.315-4.123a2.27,2.27,0,0,1,1.489-2.846,2.307,2.307,0,0,1,2.276.557,2.426,2.426,0,0,1,.334.5,1.608,1.608,0,0,1,.1.252c.713,2.3,1.452,4.58,2.176,6.821.98.3,1.953.612,2.989.88-.523.92-1.077,1.9-1.7,3,.331,1.009.646,1.937.962,2.895.668-.367,1.248-.683,1.8-.987l-.1-.037c3.866,1.266,7.764,2.546,11.9,3.9l.839-.375c-.546-1.566-1.214-3.5-1.92-5.593C687.562,269.038,687.517,269.075,687.473,269.09Zm-18.993-42.98q4.372.173,8.756.327c-.279.772-.553,1.548-.821,2.308-3.438,2.568-6.394,2.223-8.719.1C667.269,228.463,668.186,227.049,668.479,226.11Zm-13.019,22.156c8.292-3.455,9.287,1.1,11.619,3.986C663.555,251.042,660.035,249.832,655.461,248.266Zm15.016-11.809c-4.838-.872-9.61-1.9-15.974-3.21,9.287-5.2,12.5.2,18.514.779C671.613,235.4,670.748,236.505,670.477,236.457Zm31.641,15.7c-.167-.508-.331-1.006-.5-1.525a14.109,14.109,0,0,0-1.645,1.451C700.688,252.1,701.4,252.13,702.118,252.156Zm-14.24-54.207c-6.565,18.241-6.305,31.817-6.056,35.673.523-.126,1.047-.289,1.556-.408.279-.067.765,2.813,1.151,4.327-.449.757-.9,1.518-1.355,2.275,1.348,5.029,3.119,10.826,4.916,16.4a18.246,18.246,0,0,0,3.828-2.223c.754,3.106,1.366,5.619,2.224,9.167,1.522-2.49,4.185-5.084,3.717-6.465-.869-2.564.542-6.736-4.8-7.037-5.737-.33-8.7-2.865-7.375-8.339,1.827-.289,3.78-.609,5.741-.909s3.906-.59,6.231-.928c-.052,1.874-.1,3.362-.2,6.662.824-.572,1.574-1.076,2.354-1.614a2.146,2.146,0,0,1,3.075-2.093c3.253-2.219,6.186-4.223,9.057-6.228.167-.115-.063-.635-.115-1.058-1.756.141-3.535.3-6.283.512,1.883-1.934,3.071-3.155,5.043-5.185-7.75-2.216-14.853-4.249-23.553-6.732,5.046-1.028,9.985-3.058,11.14-2.067,3.19,2.735,6.732,1.091,10.457.234l-.126-.056c.034-.007.067-.015.093-.019-1.708-4.713-3.409-9.427-5.143-14.2,2.3,2.034,4.1,5.656,6.988,5.73.123,0,.212.022.327.03a99.491,99.491,0,0,1,4.953-27.63l-.219.1c.034-.093.06-.189.085-.289Zm23.446,24.327c-.074-.315-.163-.664-.23-.972l-2.5.531.015.033C709.518,222.009,710.417,222.139,711.323,222.276ZM721.687,241.9c1.062-.019,2.492-.048,4.274-.089-1.222,1.043-2.321,1.974-3.375,2.876,1.563,4.773,3.056,9.119,4.192,12.4.115-.026.23-.063.345-.093v-23.83c-2.766-.223-5.529-.442-8.385-.664C719.682,235.614,720.673,238.776,721.687,241.9Zm-191.92,99.756h.019l.011-.037ZM716.733,249.68c-3.776.245-7.207-1.893-11.073-1.087.412,1.284.817,2.505,1.222,3.752,2.195.074,4.389.16,6.584.234.115.46.23.909.345,1.366-1.9.82-3.754,1.633-5.6,2.435.527,1.566,1.04,3.077,1.515,4.461a96.151,96.151,0,0,1,12.629-2.828c-.977-2.839-2.168-6.32-3.442-10.187C718.174,248.448,717.454,249.064,716.733,249.68Zm-14.645,14.626c-2.4,1.57-4.8,3.132-7.412,4.843-1.051-.954-2.053-1.863-2.8-2.539-.108.059-.193.122-.293.189.724,2.127,1.411,4.134,1.968,5.756l.067-.022a1.392,1.392,0,0,1,.078.208l10.731-4.788a5.593,5.593,0,0,1-2.325-3.6l-.1.052ZM559.937,332.182l3.6-1.6c-1.445-.438-2.971-.805-4.538-1.128C559.324,330.408,559.654,331.373,559.937,332.182Zm-13.773-24.728c-2.711.115-5.392.126-8.1.278-5.878.323-11.775.72-17.664,1.073.219-.705.446-1.407.668-2.108,8.4-.735,16.806-1.507,25.187-2.149-.958-3.355-1.808-6.539-2.432-9.289a48.077,48.077,0,0,1-.26-5.749,7.09,7.09,0,0,1-6.39-1.585c2.243-.312,4.367-.553,6.457-.88.026-.746.041-1.44.093-2.282-1.8.906-3.747.939-6.038-1.967,2.295-.612,4.367-1.173,6.383-1.715a104.847,104.847,0,0,1,4.5-20.969l-27.712,12.366a105.956,105.956,0,0,0-5,19.351c1.849-.635,3.635-1.254,5.54-1.9.694,1.529,1.474,3.27,2.388,5.3a41.261,41.261,0,0,0-8.359-.538,67.853,67.853,0,0,0-.538,14.682c1.578,6.94,4.7,16.961,7.549,25.6a12.449,12.449,0,0,0,4.909-2.728c1.006-.857,5.072.5,7.631,1.021a13.687,13.687,0,0,1,2.57,1.054c-1.5-4.45-3.208-9.6-4.831-14.827a2.271,2.271,0,0,1,4.241-1.6,1.417,1.417,0,0,1,.1.252c1.767,5.689,3.657,11.375,5.247,16.04,2.633-.449,5.31-1.013,8.121-1.555-1.1-2.175-7.141-3.247-1.853-7.99,1.652,1.6,2.93,2.839,4.686,4.531.048-.779.089-1.41.134-2.112-1.972-5.83-4.3-12.952-6.3-19.707C546.773,307.368,546.469,307.439,546.164,307.454Zm130.967-29.375a6.6,6.6,0,0,0,2.395.987l6.725-3c-2.766.5-5.7,1.032-9.239,1.67C677.049,277.853,677.087,277.968,677.131,278.079ZM526.179,346.07a53.621,53.621,0,0,0,3.587-4.417c-1.953-.746-3.906-1.5-5.856-2.249C524.75,341.909,525.515,344.14,526.179,346.07Zm41.436-44.328a2.277,2.277,0,0,1,2.737,1.243,1.445,1.445,0,0,1,.1.263c1.166,3.741,2.384,7.482,3.535,10.941a24.99,24.99,0,0,0,11.808-3c.2-.219.319-.323.49-.494-2.859-8.517-6.32-19.369-8.388-27.638a7.391,7.391,0,0,1-4.556-1.841q.345-1.158.676-2.32,1.548.056,3.089.093c-.3-3.975-.657-16.575,4.861-33.787L554.259,257.57a100.151,100.151,0,0,0-6,28.373c1.571-.553,3.134-1.2,4.712-1.781.134.553.271,1.117.408,1.674a32.565,32.565,0,0,0-5.232,2.049,52.755,52.755,0,0,0,.141,6.573c1.738,7.634,5.332,18.987,8.385,28.128,1.337.791,2.636,1.57,4.333,2.583-.668-2.323-.958-3.3-1.415-4.877,3.093.193,5.34.468,7.661.46,1.385-.011,2.778.011,4.163.011-.264-.765-.535-1.577-.817-2.394-6.164.854-11.849.609-15.061-1.147,4.682-2.947,9.112-3.058,13.68-3-1.025-3.114-2.079-6.35-3.1-9.634A2.275,2.275,0,0,1,567.616,301.742Zm8.444-9.326c.479.423.958.842,1.43,1.266-2.2,1.689-4.4,3.381-7,5.366C569.053,293.915,569.053,293.915,576.06,292.416Zm90.63-11.579c-5.187,1.626-6.606-.594-7.928-3.348-.6-1.269-1.289-2.513-2.009-3.9-.4.238-.713.445-1.062.661,1.166,3.567,2.295,6.907,3.275,9.764a3.911,3.911,0,0,1,.382.36c-.082.011-.16.026-.245.037.379,1.087.739,2.145,1.058,3.058l.056-.03c.022.07.056.156.078.219l11.036-4.925C671.394,280.673,669.953,279.816,666.689,280.836ZM613.166,287.2a14.807,14.807,0,0,1,1.144-8.287c-1.207-4.042-2.321-7.979-3.164-11.412l.163.371c-.1-.416-.2-.824-.3-1.24-.939.4-1.894.82-2.822,1.217-.137-.271-.282-.538-.431-.805.925-.675,1.849-1.362,2.93-2.164-.056-.638-.119-1.689-.152-3.117-3.932-.635-7.23-1.3-10.639-.961-6.272.638-7.534-.26-4.285-6.112a31.5,31.5,0,0,0,14.95,3.214,99.655,99.655,0,0,1,4.942-27.412l-.212.1c.03-.1.052-.193.082-.289l-26.9,12.006c5.239,2.045,10.5,4.079,15.748,6.109-.316.5-.624.991-.947,1.488-4.868-.312-9.732-.631-15.328-.987l4.82-2.806c-2.146-.7-3.906-1.288-5.611-1.852-6.584,19.191-5.685,32.863-5.5,34.871,2.5.074,4.991.148,7.49.226-.134.471-.282.939-.408,1.407-2.091.594-4.218,1.351-6.29,1.848,2.076,8.117,5.548,18.89,8.366,27.256.509.186.951.327,1.656.6-.371.275-.78.527-1.188.79.327.946.639,1.882.932,2.746.453-.286.884-.6,1.355-.85,1.289-.661,2.952-.661,4.448-.972a19.581,19.581,0,0,0-1.047-4.112,24.493,24.493,0,0,0-2.83-3.7c3.476-1.414,6.595-2.691,8.953-3.645-1.166-3.5-2.391-7.259-3.565-11.045a2.269,2.269,0,0,1,4.237-1.6,1.962,1.962,0,0,1,.1.245c2.488,7.99,5.232,16.062,7,21.136l11.738-5.229c-1.749-5.018-4.508-13.116-7.044-21.273C614.752,284.373,613.961,285.784,613.166,287.2Zm35.859-1.789c-3.762-2.657-.828-9.4-7.285-10.859.9-1.2,1.541-2.861,2.778-3.5,1.452-.761,3.479-.4,5.139-.98q-.585-1.82-1.144-3.652c-4.01-.876-7.906-1.963-11.608-2.943,3.327-2.969,5.726-5.1,7.846-7,.39.4.81.813,1.214,1.217-.472-1.711-.895-3.329-1.27-4.873-6.068,2.52-11.53,4.8-17.33,7.211.126.9.3,2.16.646,4.7-4.218-.5-7.49-.883-9.866-1.165-1.066.457-2.009.868-2.993,1.284.639,2.783,1.519,6.049,2.529,9.512a5.368,5.368,0,0,1,3.457-1.336c-.839,1.492-1.686,3-2.521,4.491,1.326,4.4,2.77,8.926,4.159,13.149,3.762-3.143,6.747-5.649,10.041-8.413.408,2.991.732,5.318,1.092,7.912-3.561.549-6.78,1.054-10.743,1.659,1.352,4.056,2.622,7.771,3.583,10.547l.056-.022a1.328,1.328,0,0,1,.078.223l13.349-5.964c-1.768-5.1-4.612-13.409-7.17-21.644a2.266,2.266,0,0,1,3.758-2.286,2.086,2.086,0,0,1,.349.494,1.842,1.842,0,0,1,.093.252c2.484,7.994,5.236,16.055,7.007,21.143l.052-.03c.026.071.059.148.078.212l11.727-5.233c-.435-1.247-.951-2.735-1.493-4.331C652.055,285.687,649.958,286.069,649.025,285.412ZM627.6,270.734c1.107-1.425,2.287-2.924,4.033-5.155,1.972.393,4.753.957,8.166,1.648C629.657,271.436,629.657,271.436,627.6,270.734ZM136.33,459.427c.832-2.32,1.467-4.108,2.343-6.554,1.823.071,3.661.134,5.488.2.286-1.607.68-3.336,1.077-5.085-1.185-1.147-2.659-2.557-4.211-4.049C133.486,450.995,131.785,455.66,136.33,459.427ZM89.9,410.071c-.913-.022-1.871-.056-2.993-.089-.078.108-.156.23-.234.323-.048.052-.074.041-.115.1.713.245,1.422.479,2.146.794C89.1,410.824,89.5,410.449,89.9,410.071Zm65.562,71.093c1.251.037,2.5.093,3.739.148.4-.646.78-1.288,1.173-1.934q.707.468,1.407.946c-.085.349-.163.724-.241,1.084,1.177.063,2.373.056,3.535.137a1.519,1.519,0,0,1,.36.152,2.264,2.264,0,0,1,4.051.171,2.369,2.369,0,0,1,.093.26c.446,1.444.91,2.88,1.374,4.316.828-2.973,1.675-5.945,2.484-8.855-6.034.449-11.648.857-17.166,1.254C156,479.605,155.728,480.385,155.457,481.164ZM92.031,430.72c-1.649.171-3.472.364-5.321.56l-.349.156c1.9-.1,3.8-.189,5.715-.286C92.064,431.006,92.042,430.861,92.031,430.72Zm-1.749,33.9-.594.26c.156-.041.293-.126.449-.163-.037.156-.078.319-.115.482C90.115,465,90.2,464.8,90.282,464.615Zm-10.4-55.588.141.015c.85.078,1.69.145,2.54.256.416.059.913.226,1.378.327a10.622,10.622,0,0,1-.145-1.692c-1.307-.716-2.6-1.44-3.914-2.167C79.881,406.846,79.889,407.937,79.885,409.028Zm9.822-3.615c1.259.772,2.722,2.279,4.07,2.921.23-3.192.427-6,.68-9.5-.583,1.5-.977,3.437-1.552,4.962-.958.323-2.176.256-2.807,1.035C89.955,405,89.833,405.22,89.707,405.413ZM90.913,324.2c.527-.816.977-1.536,1.463-2.3-.631-1.065-1.222-2.108-1.827-3.155a9.335,9.335,0,0,1-1.474.638c-.223-.59-.427-1.221-.609-1.874a53.244,53.244,0,0,0-.594,7.23c1.2.171,2.4.293,3.583.546C91.273,324.915,91.092,324.544,90.913,324.2Zm3.535-10.792a10.234,10.234,0,0,1-.62,1.937c.1.182.208.375.319.557C94.229,315.066,94.415,314.223,94.448,313.407Zm-10.6,94.367c3.914-5.9,3.646-10.9-1.11-14.348C83.127,398.384,83.487,403.082,83.847,407.773Zm-4.04-30.455c-.059-.7-.108-1.4-.16-2.089-1.43-.022-2.863-.033-4.3-.059,1.27.742,2.562,1.473,3.984,2.216C79.488,377.359,79.647,377.345,79.807,377.319Zm-3.884,30.332c-.163-.033-.323-.074-.49-.108-.063.152-.108.3-.174.453C75.462,407.892,75.722,407.759,75.923,407.651Zm1.7,27.679c-.379,1.006-.743,2.034-1.088,3.065,1.86-1.154,3.71-2.29,5.6-3.448-.156-.486-.327-.98-.446-1.429Zm-.687-32.114c.189.045.356.1.553.134a2.257,2.257,0,0,1,1.619,1.306,2.221,2.221,0,0,1,.145,1.3c.189-.1.345-.178.535-.275a45.984,45.984,0,0,0-2.317-4.535C77.352,401.813,77.13,402.518,76.94,403.216Zm6.019,31.219.286-.182c.007,0-.074-.1-.215-.293C83.011,434.116,82.985,434.268,82.959,434.435ZM79.792,405.68l.026.048.067.037c0-.048,0-.089,0-.137A.583.583,0,0,1,79.792,405.68Zm4.007,2.253.067.033-.019-.193c-.011.03-.033.067-.052.1Zm-10.512-90.11c.524.92,1.084,1.9,1.649,2.9.758-.019,1.53.007,2.265-.07-.115.995-.234,2-.353,2.988.486.041.969.074,1.456.111.3-.59.654-1.143.928-1.752a16.126,16.126,0,0,0,.75-2.19c-.824.364-1.641.724-2.469,1.076-.758-2.453-1.89-4.869-2.12-7.363a3.965,3.965,0,0,1,.327-1.585l-2.952,1.321c.2,1.28.408,2.743.654,4.468Zm19.179-13.349-3.323,1.488c.345.148.609.256,1,.423A5.274,5.274,0,0,0,92.465,304.474ZM92.948,437.1c.453.939.8,1.64,1.069,2.208.6-.186,1.211-.379,1.8-.564,2.659-.828,6.361-.4,8.188-2.487-.041-.36-.078-.72-.115-1.084.111.234.234.479.345.709a5.063,5.063,0,0,0,.869-2.791c.015-.282,1.151-.92,2.094-1.24-.546-6.339-.464-12.039,8.611-8.629a18.982,18.982,0,0,1,.821-2.349c-.082-1.254-.16-2.613.286-3.043a.673.673,0,0,0,.078-.067l-16.632,7.423a26.138,26.138,0,0,1-.368,5.563c1.333-.067,2.674-.13,4.077-.2-2.492,1.922-4.682,4.621-7.282,5.452C95.518,436.4,94.222,436.718,92.948,437.1Zm17.593,29.894.423-.044a.3.3,0,0,1,.022-.082c-.1-.1-.212-.2-.308-.3C110.638,466.7,110.586,466.853,110.542,466.991ZM66.161,321.16a50.682,50.682,0,0,0-1.823,5.8,10.176,10.176,0,0,0,2.506-.4C66.6,324.63,66.38,322.859,66.161,321.16Zm45.451,142.762.033-.093a.384.384,0,0,0-.067.1Zm32.1,15.851c.1.341.215.672.33,1.013.2,0,.408.007.613.015-.1-.356-.2-.727-.3-1.084C144.136,479.735,143.92,479.75,143.712,479.772Zm3.966-40.765-6.246,2.783q-.184,1.024-.356,2.045c1.883-.657,3.78-1.31,5.808-2.015C147.158,440.874,147.366,439.98,147.678,439.008Zm1.274,40.375c.141.5.286,1.024.434,1.536.991.026,1.976.1,2.967.119a14.164,14.164,0,0,1-.238-1.889C151.068,479.227,149.991,479.3,148.952,479.383ZM82.042,369.31a9.732,9.732,0,0,0,1.218-1.2c-.071-.067-.123-.137-.189-.2Zm59.034,74.526a.986.986,0,0,0-.126.041l.078.067.037-.037ZM99.342,534.6a2.752,2.752,0,0,1,2.172-.887,3.714,3.714,0,0,0-1.378-.538C99.877,533.645,99.591,534.1,99.342,534.6Zm3.836-73.324c-.2.709-.375,1.451-.6,2.13.03,1.462.048,2.973.078,4.505.728-.089,1.441-.163,2.165-.252a5.577,5.577,0,0,1,.925-.649,6.943,6.943,0,0,0,2.722-2.579l-.13-.134c.071,0,.156-.015.227-.022a10.421,10.421,0,0,0,1.281-5.779C108.767,460.514,106.108,461.045,103.178,461.272ZM75.24,441.977a.991.991,0,0,1-.045.137c.089.044.178.1.267.148-.241.961-.49,1.96-.739,2.954,5.035-1.529,9.7-2.939,14.188-4.324.275-.906.576-1.919.865-2.891C84.942,439.368,80.1,440.707,75.24,441.977ZM67.3,336.246c-.074-.412-.149-.816-.219-1.225-1.225-.282-2.521-.586-3.854-.894-.015.3-.041.594-.052.891.412.7.828,1.4,1.24,2.108C65.385,336.932,66.339,336.539,67.3,336.246ZM86.769,524.523c.059-.026.1-.063.156-.093a15.05,15.05,0,0,0-.91-2.23C86.268,522.99,86.513,523.758,86.769,524.523ZM103.4,513.961c1.567-.263,3.13-.52,4.7-.787-1.615-.033-3.294-.059-4.98-.1C103.215,513.367,103.312,513.664,103.4,513.961Zm1.831-40.806c-.13-.115-.293-.163-.408-.308a7.841,7.841,0,0,1-.583-.906c-.5-.033-1-.078-1.519-.119.007.575.011,1.128.022,1.715a8.739,8.739,0,0,0,.739.872C104.088,474.023,104.667,473.586,105.235,473.155Zm2.28-21.191a3.985,3.985,0,0,1-.241-.508c-.672-.045-1.344-.089-2.005-.126-.275.512-.561,1.028-.843,1.544l.962-.074c-.011.044-.026.085-.033.122Zm-32.41,11.011c.067.939.126,1.889.189,2.817l.071-.015c.316.037.65.063.969.1l1.511-.675q1.1-2.327,2.206-4.639a19.728,19.728,0,0,1-3.724-2.873C75.919,459.461,75.511,461.227,75.106,462.975Zm44.169-6.858c.371-.616,1.121-1.837,2.25-3.7-.624-.048-1.233-.082-1.857-.13a109.809,109.809,0,0,0-3.216,11.086c1.322-.145,2.688-.3,4.025-.449.624-1.366,1.185-3.065,1.975-4.8.312,1.7.579,3.147.839,4.483,2.729-.308,5.522-.616,8.466-.958C126.891,459.5,123.378,457.935,119.275,456.117ZM114.8,471.838c.635-.263,1.27-.52,1.927-.779-.568-.735-1.047-1.344-1.5-1.922C115.076,470.067,114.927,470.965,114.8,471.838Zm-.048,37.851c-.215.831-.434,1.666-.654,2.5.668-.111,1.348-.23,2.02-.334-.241-.757-.483-1.5-.731-2.26Zm12.555-38.5c-.308.62-.62,1.228-.936,1.859.2.2.379.4.576.6,4.59.69,9.447.805,15.38-2.6C137.582,467.648,132.335,469.592,127.307,471.192Zm9-7.571a14.458,14.458,0,0,0,6.457,1.922c.03-.6.033-1.139.074-1.807C140.745,463.9,138.51,463.576,136.3,463.621Zm-39.39-62.29c.33.182.665.36.991.534,1.482-3.752,2.9-7.293,4.17-10.852-.683-.186-1.378-.364-2.05-.56a11.751,11.751,0,0,1-4.37,6.476,2.8,2.8,0,0,0-.657.831c.787,1.588,1.344,2.743,1.819,3.7A1.383,1.383,0,0,1,96.914,401.331Zm32.692-96.779c.954,1.637,1.938,3.3,2.926,4.947a2.005,2.005,0,0,1,.122.256,1.758,1.758,0,0,1,.067.267c-.126-2.334-.249-4.561-.368-6.714-.334-.007-.735-.019-1.058-.015C130.753,303.672,130.177,304.106,129.606,304.552ZM117.89,293.124l-3.167,1.41q-.663.818-1.318,1.64c1.786-.583,3.524-1.147,5.243-1.707C118.4,294.037,118.117,293.525,117.89,293.124Zm88.677,184.866c0,.122,0,.193,0,.3,1.166,3.507,2.243,6.654,3.127,9.215q2.958-.8,5.908-1.663l6.108-2.72c-.056-.167-.126-.375-.182-.542C216.377,481,211.8,479.6,206.567,477.991Zm112.657-41.986q.518,1.57,1.043,3.132l1.66-.739c-.319-.917-.694-1.993-1.069-3.1C320.308,435.538,319.77,435.775,319.224,436.005Zm-20-3.262c-5.069-1.889-9.406-3.511-13.754-5.136-.145.2-.286.393-.434.586.148.494.312.984.464,1.481.72.453,1.6,1.013,3.056,1.926-1.025.011-1.782.03-2.44.052,2.057,6.528,4.2,12.908,5.834,17.643,3.193-2.093,5.473-3.589,7.545-4.943,1.86.527,3.71,1.054,5.562,1.577l.984-.438c-1.315-3.774-3.219-9.326-5.154-15.3A6.116,6.116,0,0,0,299.22,432.743Zm-118.13-8.651-23.148,10.34c-2.974,2.45-2.247,3.815.91,7.07,2.558-1.922,6.1-5.741,7.616-5.489,3.546.6,7.854.093,11.459.442A109.411,109.411,0,0,1,181.09,424.092Zm155.185-.156c-1.6.226-3.2.479-4.8.7-1.292.171-2.588.349-3.877.453-1.749.152-3.494.289-5.243.442.275.824.553,1.67.821,2.461,5.184.534,10.082,1.225,13.787,3.693l2.477-1.095c-.88-2.535-2.031-5.864-3.268-9.583C336.216,421.969,336.149,423.038,336.275,423.936ZM321.363,422.5c1.366-.449,2.688-.868,4.151-1.351a19.466,19.466,0,0,0-5.046-1.4C320.765,420.666,321.066,421.591,321.363,422.5ZM216.11,475.007c1.066.319,2.076.62,3.141.943-.252-.742-.505-1.492-.765-2.275-.52-.078-1.069-.16-1.589-.234C216.637,473.96,216.37,474.484,216.11,475.007Zm-90-178.676c2.685,3.774,3.765,4.973,6.1,4.405-.078-1.421-.156-2.906-.23-4.268,2.284-.88,4.861-1.047,6.513-2.078-1.8-3.147-3.424-6.038-4.7-8.358l-1.4.62c-.015,1.035-.03,2.067-.033,3.1-.869-.624-1.749-1.24-2.662-1.9l-7.646,3.414c.932,1.666,2.053,3.659,3.238,5.771Zm155.8,120.888c.858.438,1.7.879,2.588,1.24.282-.479.564-.972.847-1.455-1.474-1.425-2.941-2.854-4.385-4.246.045.564.078.928.082.957C281.282,414.8,281.593,416,281.905,417.219ZM137,313.358a5.141,5.141,0,0,1-.334,2.639c.186.063.36.093.538.156-.587,2.824-1.1,5.263-1.749,8.339a9.5,9.5,0,0,1,3.026-1.741c-.2-.857-.342-1.648-.026-1.915a109.33,109.33,0,0,1,9.6-6.955c.212-.137,1.508.661,1.489.969a4.883,4.883,0,0,1-.858,2.635c-1.775,2.26-3.717,4.383-5.692,6.677-.4.033-1.645.145-3.435.3-.331.917-.668,1.863-.98,2.735q8.355,2.01,16.721,4.027a12.05,12.05,0,0,0-1.983,1.228,7.322,7.322,0,0,1,1.879.842c.048,3.169.1,6.313.141,9.464,2.885.534,5.759,1.128,8.637,1.692-3.646,1.292-4.757,3.507-5,6.142l24.47-10.911a106.756,106.756,0,0,1-15.852-8.744c-.472,1.874-.947,3.748-1.426,5.641a14.973,14.973,0,0,1-1.987-8.02,66.512,66.512,0,0,1-9.944-8.647c-3.149-4.428-6.884-10.432-10.445-16.426-2.113-.037-4.2-.071-6.22-.1C135.736,305.991,133.939,308.641,137,313.358Zm28.629,25.426a28.282,28.282,0,0,1,5.826.148c1.025.174,1.927,1.069,3.524,2-1.645.779-2.688,1.722-3.62,1.618a28.237,28.237,0,0,1-6.053-1.637A5.347,5.347,0,0,1,165.632,338.784Zm-11.771-19.351c1.615,14.159-4.786,4.661-7.88,5.96C145.977,315.3,151.373,321.95,153.861,319.434ZM444.313,153.309c.108-2.323.2-4.22.286-5.968l-4.029,1.8C441.866,150,442.983,151.714,444.313,153.309Zm-38.949,30.173a.283.283,0,0,1,.022.074l.063-.03C405.416,183.515,405.394,183.493,405.364,183.482Zm14.348-1.136c2.172,1.121,3.795.089,3.88-2.876.052-1.971.932-3.908,1.448-5.864.438.52.887,1.05,1.329,1.574.423-.1.85-.2,1.274-.3-3.505-5.938-6.81-11.8-9.1-15.914L405.2,164.918c1.942,3.5,4.582,8.18,7.441,13.09A64.891,64.891,0,0,0,419.712,182.346Zm-11.86-3.541a6.273,6.273,0,0,1-.59-.39c-.717,2.008-1.266,3.567-1.808,5.114l0,0q3.96,2.3,7.917,4.583C411.495,185.022,409.616,181.849,407.852,178.806Zm34.779-21.648c.98,1.722,2.02,3.522,3.086,5.363.089-.264.108-.508.215-.787,1.482,1.087,2.6,1.9,3.851,2.828,1.693-5.24-.353-8.039-5.251-7.6C443.889,157.024,443.269,157.1,442.631,157.158Zm158.664-25.886c-.093-.126-.226-.312-.308-.423-.074.015-.134.03-.208.044C600.95,131.023,601.117,131.149,601.295,131.272Zm-44.671,41.886,10.316-4.609.093.212,17.426-7.779c-.1-.045-.175-.093-.275-.134l.141-.056a108.17,108.17,0,0,1-13.535-7.226c-.512.134-1.029.267-1.545.4l-.442-1.622.085-.022a85.785,85.785,0,0,1-11.4-8.881c-4.783,2.375-5.926-3.96-9.194-5.248a11.594,11.594,0,0,1,4.155-1.091c-1.025-1.555-2.076-3.2-3.149-4.91-4.668-.249-8.756-.482-12.049-.668-1.4,1.893-3.1,4.557-3.316,4.45a36.622,36.622,0,0,1-3.5-2.2,2.5,2.5,0,0,1-.535-.39c-1.029-.738-2.076-1.514-3.253-2.368.5-.215.921-.39,1.374-.586-3.561-6.046-6.933-12.017-9.257-16.189l-13.349,5.949c4.775,8.558,13.691,24.253,19.866,32.96C525.314,153.165,535.463,164.569,556.624,173.157ZM555.009,151.6c-.538,1-1.426,2.628-2.469,4.569-3.943-1.592-7.906-3.2-13.3-5.385,2.945-2.483,4.954-4.175,5.9-4.969C549.194,148.18,552.154,149.917,555.009,151.6Zm-14.738-14.871c4.489,2.5,5.51,4.346,3.413,5.7-2.911,1.9-7.69-.223-9.22-5.574C537.687,140.962,539.328,139.544,540.271,136.727Zm-28.8-7.909c.2-.49.4-.972.609-1.462,5.377-.657,5.9-.386,7.23,4.019C516.543,130.474,514.007,129.646,511.475,128.819ZM399.783,190.248a1.95,1.95,0,0,1,.126.249,2.15,2.15,0,0,1-.427,2.249c8.1-2.553,8.054-3.143,5.9-9.189-2.577.98-5.169,1.982-7.79,2.988C398.32,187.776,399.044,189.012,399.783,190.248ZM139.535,287.012c.6,1.069,1.3,2.3,1.976,3.485,2.013-2.4,3.747-1.911,5.752,2.654,2.339-3.76,4.437-7.129,6.524-10.488-.91-1.618-1.76-3.132-2.484-4.45l-5.458,2.438c-.356,1.47-.724,2.958-1.121,4.58-.557-1.236-1.047-2.3-1.537-3.392l-3.758,1.681c-.078.408-.163.846-.245,1.24,3.067.508,6.194,1.039,9.591,1.611A17.7,17.7,0,0,1,139.535,287.012Zm1.493,11.78c-.286.1-.5.182-.828.3.6.367,1.069.657,1.582.976C141.529,299.634,141.276,299.211,141.028,298.792Zm-.847-1.325a.3.3,0,0,1,.067-.026l-.03-.052C140.214,297.418,140.2,297.43,140.181,297.467Zm225.5,96.571a2.266,2.266,0,0,1,1.5-2.85,2.158,2.158,0,0,1,2.291.783c.772-.79,1.567-1.6,2.443-2.468-1.021-.3-1.63-.757-2.1-.6-7.4,2.475-17.434,10.388-17.048-2.832.007-.111-.3-.178-.969-.534-.847.263-2.18.935-3.234,1.232,1.73,6.832,4.467,15.573,7,23.225.46-2.835.91-5.682,1.411-8.8,4.374-1.9,7.735-2.809,10.126-2.7C366.616,397.007,366.137,395.526,365.677,394.038ZM239.422,238.981c3.866,1.3,7.285.531,7.382,5.218.056,2.765.631,5.53,1.069,9.1-.49.078-1.121.174-1.664.256.824,1.41,1.656,2.813,2.506,4.227,4.237-.5,7.133-.831,10-1.165-.542-1.336-1.081-2.665-1.734-4.249a34.228,34.228,0,0,1,3.093-3c.141-.115.252-.1.4-.2-3.453-5.856-6.7-11.613-8.945-15.669l-13.353,5.964c.6,1.069,1.262,2.26,1.975,3.529C239.945,241.935,239.775,240.673,239.422,238.981ZM393.3,188.192c-.668.256-1.3.494-1.979.757.943,1.544,2.332,4.621,5.507,4.457a2.178,2.178,0,0,1-.943-.828C395.008,191.116,394.15,189.646,393.3,188.192Zm-17.857-2.505c-.123.015-.227.015-.342.022,4.928,8.684,11.608,20.093,16.561,27.07.022.007,10.174,11.42,31.333,20l27.7-12.362c-19.372-8.658-28.681-19.154-29.2-19.763-1.155-1.614-2.391-3.485-3.661-5.444-.624-.082-1.218-.152-1.853-.226.342.932.654,1.785.843,2.3-4.356.649-8.841,3.166-12.71-.809-.052-.052-.319.167-.472.145-9.031-1.384-18.254-2.32-24.808-9.876-1.942-2.238-3.776-4.572-5.941-7.2,4.4-.386,8.1-1.744,12.02,2.36a10.02,10.02,0,0,0,6.532,3.065c-2.421-4.186-4.642-8.117-6.294-11.1L371.8,179.823c.795,1.436,1.738,3.114,2.733,4.88C374.837,185.033,375.138,185.36,375.443,185.687ZM680.157,52.548A39,39,0,0,0,676.7,43.76l-4.248,1.9c.709,1.277,1.534,2.746,2.4,4.29C676.611,50.808,678.423,51.691,680.157,52.548ZM400.192,181.626c1.181-1.251,1.4-3.362,2.406-4.843a22.036,22.036,0,0,1,2.462-2.847c-1.523-2.676-2.908-5.14-4.029-7.152L389.3,172.014c1.831,3.292,4.289,7.656,6.951,12.236A11.023,11.023,0,0,0,400.192,181.626ZM58.474,385.476c.048-1.819.082-3.611.256-5.311-.464.223-.947.427-1.426.642a35.986,35.986,0,0,0-3.045,6.7,9.933,9.933,0,0,0,1.292-.089A5.689,5.689,0,0,0,58.474,385.476Zm-.431,58.709c-.007-.033-.026-.067-.033-.1L51.478,447a8.493,8.493,0,0,1,.052,1.666,4.881,4.881,0,0,1-.252.675l.212.486a7.543,7.543,0,0,1,1.649-.549c.9-.152,1.8-.219,2.7-.323.553-2.828,1.463-3.685,2.558-2.824a10.221,10.221,0,0,1,1.125-2.724l-.048.022C59,443.688,58.537,443.936,58.043,444.185Zm.364-13.539c.316-3.882.609-6.532.587-9.107-.011-1.125.141-2.19.193-3.292a5.293,5.293,0,0,1-1.5-2.394c-.175.238-.334.46-.5.705-.2-.393-.39-.768-.583-1.147-.319,1.113-.965,2.65-1.34,3.967-.093-.022-.149-.041-.241-.067-1.04,2.943-2.065,5.879-3.1,8.829a16.674,16.674,0,0,1,1.073,1.429c-.568.119-1.136.241-1.7.364-.542,1.533-1.084,3.077-1.623,4.617Zm-3.19-34.01c.056-.07.141-.123.2-.193-.23-1.722-.475-3.529-.746-5.578-.535,1.6-.943,2.835-1.326,3.986.026.33.1.7.134,1.043C54.055,396.139,54.62,396.391,55.218,396.636ZM52.473,413.2c.007-.063.026-.134.037-.2-1.2-1.941-2.429-3.915-3.643-5.871.219,2.06.576,4.1.891,6.146A18.413,18.413,0,0,1,52.473,413.2Zm1.938-10.967c.037.453.063.906.1,1.355.111-.508.215-1.032.33-1.54Zm3.049,56.478c.1.134.178.256.278.4,0-.16-.015-.282-.022-.431C57.639,458.685,57.546,458.7,57.46,458.707Zm-6.053-35.532c.33-1.685.624-3.177.921-4.643-.776-.223-1.426-.408-2.031-.586.041.5.149.995.167,1.488a7.848,7.848,0,0,1-.7,3.233C50.346,422.849,50.918,423.019,51.408,423.175Zm4.036-10.058c-.074.108-.134.2-.2.3l.007.152a4.709,4.709,0,0,1,.505.163C55.648,413.522,55.555,413.34,55.444,413.118ZM42.411,400.737l-.037,0c-.282.757-.568,1.514-.85,2.275l1.01-.453C42.492,401.947,42.455,401.353,42.411,400.737Zm15.458,1.934c-.03.356-.056.724-.078,1.087a1.55,1.55,0,0,0-.223-.018A9.179,9.179,0,0,0,57.29,406c1.077.056,2.146.1,3.29.152a11.784,11.784,0,0,1-.446-2.8c-.757-.263-1.482-.534-2.217-.805A.936.936,0,0,0,57.869,402.67ZM28.4,347.569c.1-.538.2-1.08.293-1.611-.524-.208-1.051-.419-1.574-.624C27.546,346.073,27.97,346.808,28.4,347.569Zm11.86,66.885a14.914,14.914,0,0,1-2.666-1.429c-.412.995-.783,2.019-1.2,3.014l2.161,4.821C39.124,418.722,39.707,416.551,40.264,414.454Zm3.1,12.032a7.113,7.113,0,0,1,2.729-1.2l.052-.16a17.777,17.777,0,0,0-2.042-.709C43.911,424.949,43.658,425.658,43.361,426.486Zm-1.5-18.048c-.026-.007-.052-.033-.078-.041l.215-.445c.011-.07.033-.137.048-.208l-1.641.739c.2.969.4,1.971.62,3.091C41.311,410.516,41.586,409.484,41.865,408.438Zm4.051-83.2L43.328,326.4c-.171,2.416-.349,4.851-.52,7.23a44.847,44.847,0,0,0,3.123-7.905C45.923,325.557,45.92,325.409,45.916,325.242Zm354.892,59.31c-.2-.624-.4-1.262-.605-1.893a3.93,3.93,0,0,1-2.748-1.34c-3.212-3.058-8.849-2.268-12.581.887.39,1.31.795,2.605,1.207,3.927,3.479-.315,6.654-.675,9.651-.683A14.56,14.56,0,0,0,400.808,384.552Zm-17,21.384c.148-.137.293-.29.442-.419-3.086.122-6.246.256-9.929.416,1,2.984,1.946,5.73,2.692,7.879l11.727-5.237c-.223-.642-.5-1.433-.75-2.182Zm-22.395,9.983q5.4-1.035,10.806-2.052c-.843-2.457-1.823-5.333-2.908-8.581-2.042,1.217-5.1,1.982-6.647,3.6,0-1.429,0-2.85.007-4.8-4.085,3.032-6.439,5.459-2.859,8.395.9.746.969,2.19,1.374,3.351l.093.033C361.321,415.89,361.373,415.89,361.414,415.92Zm39.528-23.1a5.991,5.991,0,0,1,2.458-.4c-.412-1.236-.836-2.5-1.266-3.819a25.564,25.564,0,0,0-4.452,2.338c-2.343-.75-4.493-1.447-6.643-2.145-.416.7-.824,1.388-1.237,2.086C393.222,391.893,394.581,395.541,400.942,392.817Zm-26.008,5.036c-1.277-1.93-3.234-3.459-4.913-5.144,1.37,4.39,2.8,8.762,4.118,12.693,4-2.2,6.769-3.711,9.465-5.185C379.386,401.6,376.776,400.6,374.934,397.853Zm14.374-1.934-.056.026q.674,2.049,1.318,3.945c1.144-.045,2.284-.074,3.439-.174a35.94,35.94,0,0,0,11.054-2.4c-.015-.033-.015-.056-.03-.093C399.82,396.7,394.67,395.89,389.308,395.92Zm-27.894,20q-.089.011-.189.033l.056-.089-.056.089a.427.427,0,0,1-.037-.122c-1.363-.364-2.7-.761-4.055-1.136.876,2.613,1.7,5.007,2.369,6.929l13.342-5.953-.041-.122C368.733,417.961,364.912,418.213,361.414,415.92Zm22.506-15.806c-.037,0-.082.007-.126,0l-.189.1c.1-.03.167-.022.264-.059Zm1.478-1.355c-.5.486-1,.961-1.478,1.355.635-.019,1.27-.037,1.9-.052C385.688,399.635,385.539,399.193,385.4,398.759Zm341.725-377.5-3.754,1.674c1.069,1.922,2.35,4.209,3.754,6.684ZM575.116,317.548c.356,1.058.713,2.108,1.036,3.073a23.463,23.463,0,0,0,11.422-3.529c.245-.156.483-.338.72-.5-.327-.965-.68-1.989-1.051-3.088A56.825,56.825,0,0,1,575.116,317.548ZM653.218,281c-.416-1.225-.847-2.516-1.277-3.826C650.336,279.033,651.391,280.087,653.218,281ZM514.055,346.753c-.282,2.023-.55,3.927-.858,6.016.36-.041.665-.122,1.006-.167l8.165-3.644c-.5-1.41-1.081-3.121-1.7-4.955C518.374,344.956,516.246,345.84,514.055,346.753ZM387.221,332.108c-7.746,21.533-6,36.686-5.964,36.886.453,2,1.062,4.313,1.73,6.725,1.17-.148,2.336-.327,3.5-.471.943-.119,1.756.62,2.707.809,3.286.657,6.487,1.659,9.918,1.744a2.207,2.207,0,0,1,1.463-1.518,2.135,2.135,0,0,1,2.031.516c1.3-.761,2.651-1.748,3.929-2.461-.379-.482-.761-.969-1.133-1.455-1.378.82-2.759,1.648-3.212,1.915-1.6-1.841-3-3.448-4.5-5.174-1.6,2.461-2.5,3.823-3.828,5.856-1.092-2.828-1.11-5.174-2.592-6.1-1.571-.991-4.526-.627-7.675-.932,3.491-1.993,5.908-3.374,8.243-4.7-1.058-1.485-1.938-2.709-3.583-5.007,3.78.516,5.759.8,8.173,1.121,1.909-4.253,4.857-6.584,10.858-4.687-2.714,2.06-4.8,3.652-6.888,5.24.141.427.279.857.412,1.288,1.686-.675,3.632-1.084,4.979-2.078,2.042-1.507,3.464-2.694,5.143-1.77-.256-1.013-.524-2.049-.735-2.976-.108-.761-1.107-10.1,1.9-24.264-2.213-.62-4.333-1.206-6.461-1.737-2.447-.62-4.957-1.124-7.453-1.666ZM422.33,359.82c-2.235-1.113-4.515-2.253-7.129-3.548.394,1.585.839,3.262,1.337,5.044a9.119,9.119,0,0,0,5.878-1.451l-.093-.03Zm-18.585,18.987c.312.991.624,1.96.939,2.947a9.22,9.22,0,0,0,1.76-4.1c-.78-.364-1.563-.724-2.347-1.087C403.949,377.308,403.886,378.065,403.745,378.807Zm2.729,8.462c.7,2.119,1.374,4.12,2.005,6,1.066.238,2.124.468,3.156.594,1.315-1.811,2.781-3.837,4.278-5.9C413.7,386.6,410.18,386.474,406.474,387.269ZM199.248,399.835a15.113,15.113,0,0,0-.843,1.752c.709.653,1.389,1.277,2.076,1.908C200.069,402.281,199.66,401.056,199.248,399.835Zm61.707-20.52c1.366,1.113,2.4,1.952,3.309,2.691l9.268-4.131Zm-18.986,22.772c.319-.408,2.332-.631,3.862-.542.583-2.316,1.263-4.747,2.076-7.27l-22.328,9.965a5.614,5.614,0,0,0,1.6-.078C232.107,403.149,236.577,408.983,241.969,402.088Zm14-16.378,4.27-1.9a10.38,10.38,0,0,1-3.227-.375C256.681,384.192,256.284,384.975,255.968,385.71Zm88.989,5.192c-.594-2.2-1.144-4.324-1.574-6.209l-.019-.2a23.141,23.141,0,0,1-3.884-3.31c-.538-.572,1.433-3.233,2.815-4.576a1.486,1.486,0,0,1,.9-.226c.078-2.2.256-4.71.635-7.653-1.088-.33-2.154-.653-3.249-.987-5.3,12.949-9.12,16.285-15.343,14.348.954-7.23,8.693-9.464,15.332-14.352-3.253-.995-6.624-2.026-10.486-3.2.371,2.654.538,3.878.713,5.185-1.652.341-2.985.62-3.167.657-2.83-2.65-4.593-4.287-6.108-5.7,5.3-1.021,11.24-3.225,16.119-2.772,2.581.241,4.671,1.715,6.725,3.288a107.65,107.65,0,0,1,3.758-15.636l-22.9,10.221c.015.048.045.085.067.145-.141,0-.293.007-.431.015l-4.452,1.986a108.644,108.644,0,0,0-4.3,15.365q3.782.1,7.586.2c-.279.865-.572,1.729-.843,2.6q-3.57-.273-7.137-.534c-.2,1.1-.431,2.264-.576,3.288.809.03,1.623.056,2.466.085-1.378,1.822-2.2,2.913-2.514,3.318C324.385,389.529,335.232,388.686,344.957,390.9Zm-29.372,12.511c.494,1.844,1.058,3.815,1.656,5.849.761-2.609,2.143-4.747,6.279-6.843A43.423,43.423,0,0,1,315.585,403.413Zm27.545-23.7,0-.122a.759.759,0,0,1-.078.037Zm-11.448,28.607c.171-.052.334-.108.505-.163a2.436,2.436,0,0,1,.119-.542C332.1,407.848,331.893,408.089,331.682,408.319Zm-149.344,29.4a5.561,5.561,0,0,1,2.525,3.236c4.775-.954,8.63-1.726,12.688-2.535.42-1.021.954-2.32,1.626-3.93,1.823.271,3.695.438,5.544.6.267-.913.512-1.759.791-2.7.193,1.009.323,1.9.457,2.813,1.229.119,2.466.215,3.62.367.056-1.4.175-2.939.338-4.635a9.136,9.136,0,0,1-3.724-.33c-1.742-.679-2.057-3.207-3.409-5.652,2.893,1.217,5.258,2.212,7.449,3.129a103.071,103.071,0,0,1,1.86-10.147c-7.456,1.689-12.722,1.551-16.038-.534l-4.2,1.878c.108.13.189.26.3.4-.538.085-1.1.148-1.66.2l-3.724,1.659A108.627,108.627,0,0,0,182.338,437.723Zm32.109-28.376c.019-.052.033-.1.048-.16l-.5.226C214.146,409.4,214.3,409.377,214.446,409.347Zm-62.19,30.611c.579-.2,1.125-.39,1.734-.6-.457-.237-.873-.456-1.318-.69C152.528,439.1,152.4,439.531,152.257,439.958Zm16.435,7.222c2.5,1.18,5.095,2.268,7.479,3.555.045-.991.108-2.026.2-3.181-1.775-1-3.513-2.049-5.3-3.021C170.273,445.413,169.486,446.293,168.691,447.18Zm-38.529-5.329,6.851-3.051A8.313,8.313,0,0,0,130.163,441.85Zm-25.514-62.045-1.586.716c3.1,1.793,5.421,3.188,6.52,7.608.256.063.483.126.739.182a41.649,41.649,0,0,1,4.241-12.923l-5.908,2.631c.011,1.451-1.315,2.32-3.814,2.542C104.749,380.277,104.7,380.035,104.649,379.805ZM625.524,108.447c.037.045.071.108.123.163.015.015,10.171,11.427,31.329,20.008l27.7-12.362c-.093-.045-.182-.078-.267-.126l.134-.059c-19.183-8.577-28.484-18.931-29.175-19.722-6.554-9.271-15.633-25.233-20.349-33.732l-.026.011c-.03-.063-.074-.152-.1-.212l-4.4,1.967c2.347.649,4.686,2.164,7.033,3.114-1.214,2.29-2.421,4.583-3.84,7.267,1.842.635,4.337,1.5,7.579,2.616-4.122,2.835-8.637-1.162-11.883,1.273,1.374,2.375,2.785,4.814,4.248,7.244.048.082.089.16.13.245A2.262,2.262,0,0,1,629.8,88.3c-2.725-4.554-5.358-9.152-7.623-13.153-1.025-.839-2.024-1.644-3.086-2.516C614.73,81.3,615,83,620.894,86.989c-2.183.865-4.293,1.692-5.956,2.334-.717-.4-1.392-.783-2.1-1.184,4.211,7.244,8.934,15.031,12.662,20.293Zm9.194-1.021,9.32,3.344c.189-.364.379-.724.568-1.091-1.2-1.225-2.4-2.453-4.909-5.007,3.1-.2,5.978-1.054,6.5-.29,1.006,1.459,1.11,3.941.709,5.8-.238,1.08-2.529,2.761-3.327,2.494a78.255,78.255,0,0,1-9.265-4.261C634.451,108.095,634.588,107.757,634.718,107.427ZM148.826,453.255q10.594.4,21.2.8c.245-.62.486-1.247.728-1.867-1.831-1.726-2.343-4.469-7.82-2.286-2.878,1.147-6.6-.082-11.244-.3,2.607-1.644,4.073-2.561,5.548-3.5-.074-.319-.145-.661-.223-.991-2.183.694-4.4,1.407-6.873,2.2C149.624,449.388,149.175,451.374,148.826,453.255Zm43.713-45.062q-1.866,3.752-3.383,7.337l12.978-5.793c-.817-.683-1.574-1.165-2.25-1A11.6,11.6,0,0,1,192.538,408.193Zm11.333,5.734c.835-.071,1.671-.145,2.6-.23-.241-.2-.457-.408-.691-.62Zm163.161-36.014.071.041.067-.093c-.052,0-.108.015-.16.022ZM621.065,227.761a99.632,99.632,0,0,0-6.082,29.809c7.738-1,14.549-4.234,16.439-9.215,2.295.212,4.571.427,7.972.742-1.2-1.626-1.8-2.461-2.41-3.281.464-.345.936-.683,1.407-1.017,1.779,2.049,3.6,4.123,6.038,6.925-.082-.323-.186-.7-.253-1.013-.13-.939-1.749-14.919,4.742-35.127l-.227.093c.026-.1.056-.186.089-.286ZM410,326.879c.9.29,1.808.557,2.722.828.605-2.531,1.322-5.166,2.217-7.961l-11.24,5.018C405.8,325.457,407.886,326.2,410,326.879Zm4.545,25.433a47.93,47.93,0,0,1,8.715-4.157,22.738,22.738,0,0,1,9.335-.33c3.334.449,6.316,1.652,10.022,2.691a6.961,6.961,0,0,1,3.141-2.256c-.836-2.973-1.6-5.816-2.154-8.284-.134-.954-1.745-14.927,4.738-35.138L420.633,317.2a108.1,108.1,0,0,0-3.5,11.917c.962.315,1.946.609,2.874.98.769.3.657,1.737,1.1,3.092-1.649-.464-3.171-.9-4.642-1.321A81.735,81.735,0,0,0,414.543,352.312Zm11.14-37.361c2.922-1.459,6.391-1.885,9.877-2.828.022,1.481.041,3.344.052,4.739-4.59,1.017-8.645,1.922-14.214,3.166C422.768,318.328,423.815,315.886,425.683,314.951Zm-65.7,68.926c3.119.122,6.212.234,10.382.386-1.4-2.654-2.365-4.5-3.338-6.35-1.155-.7-2.31-1.41-4-2.431C361.834,378.766,360.9,381.353,359.988,383.876ZM658.936,93.547c.033.048.067.108.108.16.03.011,10.178,11.416,31.336,20.011l27.7-12.362a2.89,2.89,0,0,0-.267-.126l.137-.063c-17.809-7.961-27-17.35-28.8-19.325-4.371-2.1-8.555-4.123-12.7-6.12a22.726,22.726,0,0,1,9.877,2.141c-3.383-5.11-7.137-11.334-10.542-17.191a7.529,7.529,0,0,1-1.051-.764c-3.583-3.385-7.029-6.083-6.116-11.843-.063-.111-.141-.245-.208-.353l-.015.007c-.037-.067-.085-.145-.115-.208l-3.461,1.548c-.227,1.043-.457,2.1-.761,3.515-1.552-.675-2.61-1.132-3.606-1.562l-1.541.683c-.056.238-.111.453-.152.661-.182,1.136-.353,2.275-.524,3.407,2.473,4.409,5.585,9.861,8.789,15.227l.13.249A2.26,2.26,0,0,1,663.21,73.4c-4.085-6.829-8.054-13.869-10.683-18.6l-.022.019-.111-.208-13.346,5.953c4.764,8.573,13.683,24.257,19.859,32.956ZM656.27,78.115q-2.8-3.062-5.6-6.138c.657-.538,1.311-1.076,1.972-1.6q2.618,3.162,5.251,6.339C657.351,77.184,656.816,77.662,656.27,78.115Zm70.708,67.453-29.628,13.22a8.071,8.071,0,0,1,5.629,1.989,14.084,14.084,0,0,1-16.108,2.687L452.824,267.906c.91.341,1.794.664,2.677.991-.36.471-.72.939-1.081,1.41a7.72,7.72,0,0,0-4.356-1.169l-47.47,21.18a11.85,11.85,0,0,1,2.083.887c-3.732,1.321-7.709,2.728-11.972,4.231.126-.327.286-.6.431-.9l-225.889,100.8c.26.019.524.041.787.067-.731,2.739-1.214,4.6-1.927,7.285L161.28,398l-7.167,3.2c-.342,3.366-1.853,4.754-4.508,4.654q.351-1.141.7-2.294c-.865.178-1.716.341-2.484.449l-1.942.861c-.382,4.253-.68,8.651-2.2,11.991-1.7,3.752-5.919,5.344-9.02,7.9-.375-.672-.739-1.34-1.114-2.008,1.2-1.648,2.417-3.31,3.661-5.018-1.556-1.366-2.859-2.605-4.044-3.793q-3.314-.139-6.613-.312a17.5,17.5,0,0,1,1.712,2.828c.308.668-.809,2.509-1.288,3.819-.4.182-.795.371-1.2.557-.219-1.548-.423-3.106-.62-4.665-.449.226-.884.457-1.318.672-.68,1.589-1.359,3.184-1.389,3.247,1.526,2.743,2.989,5.118,4.3,7.4a2.225,2.225,0,0,1,3.108,1.043,2.279,2.279,0,0,1-.119,2.078c-.264.442-.475.861-.7,1.3.052.126.119.26.167.39,1.678.171,3.929-.163,5.744-.119.616.8.947,1.974,1.9,2.316,1.95.7,4.452.646,6.3,1.436l.13.067,2.354-1.054q-2.69-1.414-5.336-2.817,6.377-3.563,12.937-7.226a127.4,127.4,0,0,1,6-11.494,2.277,2.277,0,0,1,3.108-.805,2.187,2.187,0,0,1,.921,1.032,2.218,2.218,0,0,1-.115,2.075c-1.27,2.156-2.376,4.261-3.442,6.346.732,1.566,1.615,3.459,2.558,5.474l8.607-3.841c-1.953-.271-3.958-.6-6.112-.783,1.9-1.9,2.9-2.906,3.661-3.663,1.5,1.013,2.893,1.945,3.669,2.461,1.652-2.264,2.376-4.123,3.866-5.107,3.193-2.127,6.784-3.8,9.892-5.482l.182.245c.687-1.536,1.415-3.1,2.2-4.669a9.875,9.875,0,0,0-3.981-.2c.059-.531.115-1.073.175-1.615,1.9-.7,3.851-1.4,5.837-2.127.758-1.407,1.534-2.813,2.376-4.249a2.254,2.254,0,0,1,4.022.223,2.207,2.207,0,0,1,.111,1.351c.078.078.152.141.238.219.728-.267,1.411-.5,2.15-.779-.468-1.429-.943-2.858-1.352-4.309a3.547,3.547,0,0,1,1.088-2.687c1.422-.972,3.03-1.5,6.379-3.021-1.01,6.228-1.764,10.9-2.5,15.454,3.175-.319,6.361-.616,10.07-.95-.694.65-1.289,1.21-1.912,1.8l5.633-2.513c.048-.122.1-.238.149-.356a3.544,3.544,0,0,1,.538-1.351c.379-.939.735-1.874,1.144-2.832-3.888-.88-7.464-1.689-11-2.49,5.763-1.355,9.907-1.551,12.462-.779a130.065,130.065,0,0,1,6.179-11.895,2.285,2.285,0,0,1,3.115-.8,2.263,2.263,0,0,1,.8,3.1,125.545,125.545,0,0,0-7.167,14.229c0,.13.011.26.019.39l22.67-10.121c-2.8-.768-.917-5.077-3.3-6.209,11.2-5.363,7.434.88,7.75,4.231l.041-.022a129.261,129.261,0,0,1,9.48-19.7,2.262,2.262,0,0,1,3.1-.809,2.222,2.222,0,0,1,.925,1.028,2.3,2.3,0,0,1-.111,2.078c-1.073,1.822-1.983,3.585-2.9,5.352q7.547-2.733,15.076-5.459l-.071,1.815c1.329.761,2.733,1.555,4.255,2.412l3.658-1.629a129.619,129.619,0,0,1,7.835-16.768c-5.277,3.181-11.032,3.1-13.479-.527,4.924-.668,9.469-1.273,14.905-2.011.074-.13.134-.252.215-.386a2.262,2.262,0,0,1,3.1-.805,2.2,2.2,0,0,1,.928,1.021,2.276,2.276,0,0,1-.119,2.082,126.253,126.253,0,0,0-7.393,14.719L312.8,360.354c-.249,0-.457.011-.72.022a40.435,40.435,0,0,1,4.946-2.412,129.789,129.789,0,0,1,9.231-19.091,2.273,2.273,0,0,1,3.112-.805,2.3,2.3,0,0,1,.917,1.028,2.231,2.231,0,0,1-.119,2.082,127.692,127.692,0,0,0-7.389,14.719L350.2,343.665a128.654,128.654,0,0,1,9.469-19.7,2.276,2.276,0,0,1,3.112-.8,2.274,2.274,0,0,1,.806,3.1,125.482,125.482,0,0,0-7.4,14.723l27.415-12.24a128.791,128.791,0,0,1,9.476-19.685,2.268,2.268,0,0,1,3.91,2.3,123.231,123.231,0,0,0-7.386,14.712l1.779-.794q.162-.612.323-1.236c1.121-.1,2.287-.278,3.431-.438L417,313.856a129.037,129.037,0,0,1,9.484-19.7,2.268,2.268,0,0,1,3.91,2.3,125.348,125.348,0,0,0-7.389,14.719l26.639-11.884a.994.994,0,0,1-.093-.041c.312-.189.62-.319.936-.494a129.023,129.023,0,0,1,9.395-19.51,2.278,2.278,0,0,1,3.112-.8,2.14,2.14,0,0,1,.917,1.028,2.217,2.217,0,0,1-.115,2.075,124.74,124.74,0,0,0-7.311,14.563c.334-.108.672-.23,1-.323l15.681-7c-.345.1-.687.234-1.036.33-.5.145-1.274-1.158-2.893-2.735,5.841-1.2,10.371-2.138,14.868-3.066a128.743,128.743,0,0,1,9.183-18.98,2.271,2.271,0,0,1,3.108-.809,2.206,2.206,0,0,1,.917,1.028,2.245,2.245,0,0,1-.111,2.078,126.686,126.686,0,0,0-7.4,14.726l27.411-12.232a128.867,128.867,0,0,1,9.487-19.7,2.258,2.258,0,0,1,3.1-.805,2.222,2.222,0,0,1,.917,1.024,2.254,2.254,0,0,1-.119,2.082,123.529,123.529,0,0,0-7.382,14.719l27.4-12.229a128.691,128.691,0,0,1,9.484-19.707,2.27,2.27,0,0,1,3.91,2.308,124.885,124.885,0,0,0-7.393,14.723l27.4-12.232a129.455,129.455,0,0,1,7.389-15.966l2.358,5.285c-1.381,2.728-2.644,5.4-3.747,8.005l6.108-2.728.089.2,21.348-9.523a129.39,129.39,0,0,1,9.476-19.7,2.27,2.27,0,0,1,3.1-.8,2.121,2.121,0,0,1,.795.887,2.217,2.217,0,0,1-.119,2.026,125.19,125.19,0,0,0-7.393,14.726l.286-.122c-.045.093-.1.212-.149.3l27.408-12.229c.2-.546.453-1.113.676-1.666-1.136-.011-2.272-.007-3.405-.015.2-.772.409-1.544.6-2.316q1.866.033,3.724.045A130.132,130.132,0,0,1,660.459,190a2.266,2.266,0,0,1,3.1-.813,2.182,2.182,0,0,1,.8.891,2.3,2.3,0,0,1-.126,2.03,122.551,122.551,0,0,0-6.918,13.691c.78.007,1.552.015,2.328.026l24.734-11.037a128.825,128.825,0,0,1,6.513-14.381c-2.076,1.433-4.114,3.173-6.327,3.778-1.485.4-3.3-1.358-5.945-2.609,5.043-1.355,8.418-2.268,11.79-3.166.3.408.605.828.906,1.221.809-1.5,1.638-3.014,2.544-4.55a2.286,2.286,0,0,1,3.112-.8,2.247,2.247,0,0,1,.795.887,2.271,2.271,0,0,1-.123,2.03,125.991,125.991,0,0,0-7.393,14.723l.275-.119a2.337,2.337,0,0,0-.137.308l27.4-12.232a129.316,129.316,0,0,1,9.328-19.44v-2.783c-2.388.041-4.868.082-7.594.13a70.777,70.777,0,0,1,7.594-3.693v-3.912c-.828.082-1.656.167-2.521.256C725.679,148.125,726.391,146.633,726.978,145.568ZM189.4,396.744c-2.269.015-4.549.03-6.821.048,1.686,1.021,3.372,2.075,4.953,3.247.171.141-1.2,2.36-1.827,3.559-1.638-1.811-2.711-3.014-4.389-4.88.082,2.015.119,2.861.16,3.719-.512.134-1.029.252-1.541.39q-.958-3.017-1.924-6.016l-5.459.033c.115-.534.234-1.065.345-1.6q8.466-.217,16.94-.427C189.7,395.463,189.549,396.105,189.4,396.744Zm34.775-18.126c-.72-.98-1.444-1.96-1.909-2.594-4.708,1.64-8.9,3.1-13.078,4.557-.085-.705-.16-1.4-.245-2.1,5.243-.43,9.851-7.634,15.44-3.388.75.583.383,2.13.535,3.229C224.662,378.421,224.424,378.517,224.171,378.618ZM230.454,369c8.485-.735,16.064-1.381,23.913-2.067C249.036,373.184,239.4,374.086,230.454,369ZM469.741,276.75q-5.871-.323-11.73-.65.468-1.213.921-2.423,5.759.612,11.507,1.236C470.209,275.526,469.979,276.138,469.741,276.75Zm104.618-43.307c1.523-4.39,4.237-7.723,9.591-7.308.338.516.691,1.035,1.029,1.548Q579.676,230.562,574.359,233.443ZM700.12,167.91c4.319-2.683,9.224-8.744,11.883-.1Zm-586,237.878c-.056-.111-.111-.215-.171-.319-.078.167-.152.33-.226.5Zm601.03-191.235c1.912,1.232,2.38,3.251,3,5.244-.954.2-1.819.393-2.718.583.189.82.412,1.707.642,2.6q5.525.818,11.051,1.64v-27.7c-3.613-.341-6.74-2.264-7.523-5.333,2.44.534,4.972,1.091,7.523,1.648v-12.8l-5.837,2.609A98.007,98.007,0,0,0,715.151,214.553ZM339.509,410.093c-.739-.033-1.415-.063-2.135-.089.178.568.36,1.128.538,1.7C338.529,411.084,339.045,410.564,339.509,410.093Zm-4.2,8.51c.074.052.089.156.149.223-.962-2.906-1.946-5.953-2.911-9.033-2.592-.111-5.147-.189-7.709-.171-1.029.007-2.369,1.236-3.568,1.908.876.494,1.626,1.369,2.64,1.4a31.221,31.221,0,0,0,5.429-.842c-1.411,1.47-2.466,2.564-2.87,2.988C329.736,416.291,333.089,416.952,335.306,418.6Zm-20.869-19.792c.078.327.182.713.267,1.054.843.111,1.7.212,2.551.323.368-.92.735-1.844,1.107-2.78-1.337-.037-2.685-.056-4.025-.111C314.385,398.165,314.437,398.77,314.437,398.811Zm-.163-5.931c.267-.07.523-.13.787-.2-.249-.531-.468-1.087-.694-1.633C314.341,391.655,314.285,392.335,314.274,392.88Zm11.281,12.73c1.1-1.188,2.191-2.36,3.286-3.548a.372.372,0,0,0-.063-.041Q327.168,403.819,325.555,405.61ZM375.74,389c.832,1.945,2.172,5.084,3.513,8.22.46-.1.917-.2,1.389-.308.212-1.811.423-3.622.676-5.771.472-.1.984-.2,1.489-.293q-.8-2.522-1.582-5.055C379.884,386.675,378.009,387.573,375.74,389Zm-28.057-8.157c4.007-4.5,6.847-8.332,10.531-11.509,1.638-1.414,5.017-1.511,7.6-2.208.123.583.245,1.158.368,1.744-2.273,1.206-4.545,2.431-7.519,4.019,4.63.182,8.281.345,11.392.464-1.159,1.807-2.02,3.155-2.885,4.506,3.765-.516,7.527-1.013,11.3-1.525-.639-2.327-1.225-4.572-1.678-6.554-.13-.946-1.749-14.919,4.738-35.131l-27.708,12.366C348.076,362.96,347.556,375.385,347.682,380.844Zm-2.365,11.349c-3.568,4.561-6.075-1.214-8.221.972q-4.122,4.453-8.255,8.9c1.779,1.143,3.554,2.286,5.329,3.444-.212.234-.423.471-.631.709.082-.03.141-.1.23-.126a2.161,2.161,0,0,1,2.28.783c4.4-1.458,8.622-2.858,12.41-4.12C347.333,399.156,346.26,395.574,345.317,392.193ZM115.458,349.454c0-.319-.022-.642-.033-.961a3.207,3.207,0,0,0-2.469,2.461,6.776,6.776,0,0,0-.048.69c.546-.431,1.062-.876,1.56-1.31a.856.856,0,0,1-.048-.137c.178-.1.353-.2.535-.29C115.128,349.748,115.284,349.6,115.458,349.454ZM266.013,307.81l-2.18.969c1.827,1.061,3.7,2.03,5.559,3.04.178-.319.349-.635.535-.95C268.616,309.84,267.32,308.827,266.013,307.81ZM155.662,349.566l-.226-.115c0,.071,0,.134,0,.2C155.517,349.625,155.576,349.6,155.662,349.566Zm127.577-60.724c-.679.011-1.147.022-1.682.026,2.421,1.214,5,2.4,7.816,3.541l27.7-12.359c-19.38-8.655-28.681-19.154-29.209-19.759-3.728-5.248-8.269-12.685-12.376-19.711-1.586,2.038-3.063,3.945-4.753,6.116-.468-.62-1.255-1.659-2.046-2.709-.423.52-.843,1.054-1.27,1.574q1.866,2.076,3.736,4.138c-.271.364-.531.713-.806,1.069-2.547-2.331-5.158-4.713-7.924-7.237,1.214,2.093,2.462,4.223,3.728,6.343a1.98,1.98,0,0,1,.13.245,2.156,2.156,0,0,1-.483,2.323c.687,1.956,1.207,4.016,1.927,6.458-4.025,2.858.81,6.313,1.159,11.382-2.013-2.223-3.84-3.311-4.129-4.717-1.222-5.882-5.195-6.068-9.97-5.775-1.708.1-3.513-.857-5.874-1.67,3.179,5.3,6.409,10.466,9.12,14.281a59.837,59.837,0,0,0,7.178,6.335c-.68-.969-1.374-1.922-2.046-2.895,3.015-.234,6.016-.49,9.034-.683.215-.015.46.4,1,.913-1.17.683-2.224,1.3-3,1.748C270.9,285.357,278.861,284.169,283.238,288.842Zm9.773-15.075c.587.063,1.173.13,1.76.2-.156,1.518.215,3.592-.631,4.387s-2.893.286-5.8.4C290.724,276.216,291.864,274.991,293.012,273.766Zm-7.842,13.275-7.66-9.8c.375-.2.746-.379,1.118-.56,2.855,1.718,5.711,3.426,8.882,5.333C287.052,283,286.454,284.3,285.169,287.042Zm-6.424-24.658c2.165.653,4.088,1.228,6.22,1.878-2.41,1.767-4.508,3.3-7.5,5.5C278.01,266.6,278.367,264.551,278.745,262.384Zm-4.222,42.171c-.152.208-.3.412-.446.62l4.541,2.98c.657-1.882,1.812-3.748,1.82-5.623a3.376,3.376,0,0,0-.2-1.076l-6.632,2.954C273.914,304.462,274.219,304.507,274.523,304.555ZM113.249,367.847c-.015.468-.026.935-.041,1.4.988.033,1.994,0,2.982.03C115.15,368.812,114.233,368.322,113.249,367.847ZM723.933,176.891c-.041.1-.1.2-.141.312l3.331-1.488V169.52c-1.277,2.55-2.429,5.051-3.465,7.486Zm-27.612-61.106c.1.041.215.067.316.111l-.182.078a123.007,123.007,0,0,0,15.885,4.32,2.2,2.2,0,0,1-1.025,4.272,129.612,129.612,0,0,1-21-6.1l-27.408,12.229c.108.037.223.067.331.108l-.193.089a125.7,125.7,0,0,0,15.889,4.316,2.242,2.242,0,0,1,1.493,1.128,2.158,2.158,0,0,1,.149,1.362,2.263,2.263,0,0,1-2.666,1.781,128.9,128.9,0,0,1-21-6.109L629.5,145.6c.111.037.223.063.331.1l-.2.089a123.851,123.851,0,0,0,15.9,4.324,2.051,2.051,0,0,1,1.645,2.487,2.28,2.28,0,0,1-2.674,1.785,131.127,131.127,0,0,1-21-6.1l-27.4,12.221c.1.041.219.067.327.1l-.193.089a124.712,124.712,0,0,0,15.889,4.324,2.238,2.238,0,0,1,1.489,1.132,2.2,2.2,0,0,1,.156,1.366,2.271,2.271,0,0,1-2.674,1.77,129.375,129.375,0,0,1-21-6.094l-27.4,12.229c2.677.9,5.51,1.767,8.463,2.546l2.362,5.285a128.271,128.271,0,0,1-16.829-5.162l-27.4,12.232a124.328,124.328,0,0,0,15.9,4.324,2.257,2.257,0,0,1,1.623,1.306,2.216,2.216,0,0,1,.152,1.373,2.279,2.279,0,0,1-2.67,1.781A129.541,129.541,0,0,1,523.279,193l-27.4,12.24a126.427,126.427,0,0,0,15.889,4.32,2.269,2.269,0,0,1-.888,4.45,130.173,130.173,0,0,1-21-6.094l-27.408,12.225a124.673,124.673,0,0,0,15.9,4.324,2.266,2.266,0,0,1,1.626,1.3,2.236,2.236,0,0,1,.149,1.369,2.274,2.274,0,0,1-2.677,1.785,130.209,130.209,0,0,1-21-6.1l-27.4,12.225a124.913,124.913,0,0,0,15.893,4.331,2.24,2.24,0,0,1,1.623,1.306,2.189,2.189,0,0,1,.156,1.369,2.274,2.274,0,0,1-2.677,1.767,127.866,127.866,0,0,1-21-6.094l-27.4,12.225c1.983.683,4.088,1.314,6.227,1.93q6.756-1.347,13.531-2.7c.026.631.056,1.251.074,1.885-3,.672-5.989,1.343-8.986,2.008,1.667.412,3.286.85,5.05,1.206a2.267,2.267,0,0,1,1.623,1.3,2.212,2.212,0,0,1,.149,1.377,2.271,2.271,0,0,1-2.666,1.774,130.979,130.979,0,0,1-21.01-6.094l-5.566,2.479a17.05,17.05,0,0,1,2.722,1.273c-2.3.223-4.612.442-7.118.687l-17.438,7.786a124.445,124.445,0,0,0,15.893,4.324,2.308,2.308,0,0,1,1.63,1.3,2.281,2.281,0,0,1-2.521,3.155,128.7,128.7,0,0,1-21.006-6.105l-27.4,12.229a125.378,125.378,0,0,0,15.885,4.335,2.266,2.266,0,0,1,1.782,2.672,2.271,2.271,0,0,1-2.67,1.778,129.5,129.5,0,0,1-21.006-6.105l-26.509,11.835c-.019.215-.041.449-.071.653,1.17.39,2.421.75,3.654,1.125.119-.39.249-.783.371-1.173,2.12,1.006,4.237,2,6.365,3,1.545.375,3.045.783,4.675,1.113a2.27,2.27,0,1,1-.884,4.454,129.162,129.162,0,0,1-16.569-4.494c-1.255.594-2.978.5-5.321-.26a6.765,6.765,0,0,0-1.745-.171l-4.4,1.963c1.519,2.075,3.037,4.146,4.746,6.473-4.408,1.407-8.481,4.472-12.8,6.09,1.2.282,2.328.6,3.58.861a2.248,2.248,0,0,1,1.626,1.3,2.289,2.289,0,0,1-2.529,3.158,130.308,130.308,0,0,1-16.238-4.379c.1.961.186,1.748.252,2.327-2.339-1.032-4.623-2.127-6.9-3.214l-25.521,11.386a125.563,125.563,0,0,0,15.889,4.335,2.247,2.247,0,0,1,1.63,1.3,2.258,2.258,0,0,1-2.521,3.143,129.842,129.842,0,0,1-21-6.1L195.219,339.4a125.912,125.912,0,0,0,15.9,4.324,2.261,2.261,0,0,1,1.626,1.3,2.3,2.3,0,0,1,.149,1.373,2.252,2.252,0,0,1-1.853,1.774c.705.119,1.374.226,2.087.334-5.692,2.565-13.858,2.1-20.378-.523-7.913,5.637-9.45,5.559-13.282-.226,4.448.019,8.036.03,12.759.041a21.775,21.775,0,0,1-5.945-3.63c7.456,1.21,14.389,2.331,21.812,3.529a130.434,130.434,0,0,1-18.875-5.615l-27.4,12.221a123.859,123.859,0,0,0,15.885,4.324,2.3,2.3,0,0,1,1.634,1.306,2.332,2.332,0,0,1,.148,1.377,2.276,2.276,0,0,1-1.337,1.592c.3.468.605.954.925,1.451-2.77.048-5.533.1-8.693.16,1.088,1.618,1.823,2.739,3.286,4.943a43.248,43.248,0,0,1-6.164-1.429c-.7,3.47-1.407,7.007-2.247,11.149-2.172-4.5-2.376-9.126-1.11-12.459a26.8,26.8,0,0,1-9.822-7.348c2.8.713,4.593,1.514,6.417,1.562a45.783,45.783,0,0,0,7.475.085,129.032,129.032,0,0,1-12.41-4.034l-11.218,5.014a29.143,29.143,0,0,1,3.2,3.277c.783,1,.873,2.553,1.285,3.871-4.575,1.251-5.633-1.358-6.847-3.767-.769,2.349-1.545,4.713-2.321,7.063-.683-.475-1.363-.95-2.061-1.421a10.377,10.377,0,0,1,.475-6.231l-9.9,4.424a126.361,126.361,0,0,0,15.878,4.331,2.248,2.248,0,0,1,1.63,1.3,2.213,2.213,0,0,1,.152,1.373,2.272,2.272,0,0,1-2.674,1.778,128.708,128.708,0,0,1-14.66-3.875A2.4,2.4,0,0,1,127.6,375.9c-1.56.431-3.416,1.113-4.846.917a14.793,14.793,0,0,1-.241,2.316c-.256,2.082-.371,4.22-.538,6.335a20.6,20.6,0,0,0,4.5-.553c2.135-.735,4.181-1.889,7.6-3.478-.6,1.548-1.088,2.817-1.541,4-.668,7.2-2.848,9.356-8.971,9.779,1.9-2.487,3.554-4.665,5.1-6.691-.252-.386-.5-.757-.613-.917-3.665,4.595-6.1,10.21-8.6,15.791l8.6-3.83a9.807,9.807,0,0,1,.616-1.032c.252.13.434.312.668.46l2.959-1.329c-.319-.234-.635-.479-.954-.712q2.328-5.355,4.638-10.714c.579.39,1.166.772,1.749,1.169q-1.771,4.7-3.55,9.416l25.083-11.2a4,4,0,0,1-1.586,0c-4.545-1.236-8.648-4.071-12.536-6.046.616-.668,1.935-2.075,3.888-4.157,2.521,3.771,5.6,4.721,9.848,3.819,2.065-.438,4.6,1.4,6.929,2.208.037.4.067.816.1,1.221l64.255-28.673c-.149-.122-.327-.219-.468-.345-.327-.289.728-2.156,1.151-3.3a11.177,11.177,0,0,1,2.714,1.93c.037.048.063.111.1.156l110.533-49.323c-4,.152-8.065.664-11.426-2.5,5.083-2.141,9.536-.616,13.9,1.392l14.147-6.309c-1.218-.6-2.425-1.217-3.635-1.83.2-.353.394-.7.6-1.054,2.165.219,4.356.434,7.746.776l214.519-95.725.1.2,126.381-56.4c-1.975.078-4.17.167-6.97.282,3.424-1.67,4.894-2.4,6.506-3.181-1.315-1.2-2.321-2.134-3.487-3.2,8.162-3.559,5.2,3.292,8.492,4.068l16.067-7.17V104.8c-1.151-.4-2.306-.809-3.405-1.232ZM158.74,372.435c-2.64-2.279-5.217-4.505-8.626-7.463C157.106,364.522,159.527,367.016,158.74,372.435Zm42.12-11.286c-4.43-1.77-7.909-3.158-12.076-4.817a15.56,15.56,0,0,1,2.752,2.379c-3.431.909-6.9,1.826-10.379,2.743,3.869-4.175,5.358-5.767,6.877-5.448,3.94-2.512,7.144-4.565,9.866-6.305,3.134.739,5.9,1.381,8.448,1.982C204.458,354.954,202.486,358.335,200.859,361.149Zm12.465-23.385c-.071-.431-.137-.865-.208-1.284,4.783-.5,9.577-.991,14.916-1.555C223.355,340.406,218.282,338.614,213.325,337.764Zm86.115-19.889a3.525,3.525,0,0,1-2.881-.141c-1.393-1.028-2.4-2.372-4.954-5.04,6.7-1.173,11.608-2.034,16.506-2.891.052.46.119.917.171,1.366C305.358,313.425,302.5,315.756,299.439,317.875Zm16.16-16.244-1.162-5.478c1.1-.067,2.2-.137,3.3-.212.022,1.8.056,3.6.085,5.393C317.074,301.438,316.339,301.531,315.6,301.631Zm16.483-3.2c10.349-5.99,15.666-6.138,17.7-.868C343.824,297.86,338.373,298.124,332.083,298.435Zm3.669-11.19c5.221,1.607,10.449,3.218,16.409,5.047C345.339,294.435,340.386,291.51,335.752,287.246ZM116.42,387.05c.765-1.978,1.418-4.079,2.324-5.919.8-1.652,1.723-3.188,2.64-4.736-.795-.36-1.589-.727-2.376-1.106q-2.423,4.9-4.857,9.8C114.9,385.74,115.666,386.393,116.42,387.05ZM681.561,45.7a59.34,59.34,0,0,0,8.7,1.882c-.134-.241-.264-.46-.394-.694q-3.671-2.861-7.345-5.727l-3.349,1.5A3.1,3.1,0,0,0,681.561,45.7Zm40.62,20.831c-3.906-5.5-8.678-13.375-12.918-20.646-2.076-2.138-4.177-4.235-6.832-5.422-.36.438-.72.865-1.084,1.3q4.874,5.589,9.736,11.2c-.271.2-.535.4-.795.6q-8.411-4.749-16.814-9.482c2.105,3.719,4.5,7.868,6.962,11.995.052.082.089.167.13.245a2.279,2.279,0,0,1-.91,2.873,2.255,2.255,0,0,1-3.045-.713c-.52-.868-1.025-1.726-1.537-2.605-4.452.056-9.127-3.481-12.677,1.084,2.525,2.1,4.905,4.071,7.3,6.038-.4.59-.8,1.18-1.2,1.763-1.853-1.759-4.092-2.026-6.394-2.256,3.52,5.934,7.185,11.843,10.211,16.088l.026.041c.03.045.067.1.1.16.026.011,10.186,11.42,31.344,20l3.335-1.488V71.26A51.266,51.266,0,0,1,722.181,66.532Zm-26.249-6.491c5.421-.85,11.2,3.86,11.381,8.8C703.5,65.89,700.027,63.2,695.931,60.041Zm5.9-27.244-.022.011a1.445,1.445,0,0,1-.108-.2L697.9,34.3a7.892,7.892,0,0,0,6.157,2.479C703.243,35.346,702.489,33.984,701.828,32.8Zm-9,6.009c2.068,2.086,3.631,3.648,5.187,5.214.505-.494,1.014-.987,1.511-1.484-1.834-1.718-3.472-3.811-5.6-5.01-.91-.512-2.458.111-3.869.5.509.909,1.084,1.937,1.682,3C692.085,40.3,692.419,39.622,692.823,38.805Zm-562.5,373.014c.3.022.587.052.876.085-.085-.111-.215-.234-.308-.338Zm5.934,2.282c.282,1.2.579,2.412.958,3.633,2-2.743,4.092-5.608,6.454-8.859-2.313-.46-3.524-.7-4.671-.932l-3.724,1.666c.2.891.394,1.8.59,2.724.81.067,1.612.152,2.41.219-.189.538-.375,1.076-.572,1.611Zm14.292-11.3-.694.308c.182.056.368.115.542.178C150.444,403.119,150.493,402.949,150.545,402.8ZM721.5,51.386q-.468.69-.943,1.377a10.68,10.68,0,0,1-2.184-.408c2.581,4.246,5.139,8.246,7.345,11.353l.026.026c.034.052.074.1.111.16,0,0,.434.479,1.263,1.284V46.859c-.241-.07-.457-.111-.713-.193-1.185-.379-2.726.534-4.1.512A4.17,4.17,0,0,1,719.83,46.1c-.2-.186.386-1.922.828-2.019,2.128-.508,4.293-.98,6.465-1.451V38.664c-3-5.151-5.782-10.084-7.783-13.68l-.019.011c-.041-.063-.085-.141-.115-.2l-13.345,5.946c2.432,4.379,5.956,10.622,9.64,16.834C717.491,48.866,719.514,50.106,721.5,51.386Zm-619.7,323.928c.108.041.2.315.29.664l.145-.063c-.278-.4-.557-.809-.839-1.206-.089.071-.175.152-.267.23A6.016,6.016,0,0,0,101.808,375.315Zm.312,9.853a10.313,10.313,0,0,1-1.021.75l-.015.078c.46.137.869.286,1.329.419C102.306,385.984,102.191,385.565,102.12,385.168Zm4.17-11.056.468-.212c-.059-.044-.119-.085-.178-.134.334-1.273.776-2.542,1.185-3.808-.5-.245-.984-.49-1.478-.727-.379,1.314-.787,2.694-1.192,4.094A9.344,9.344,0,0,1,106.29,374.112Zm.6,18.078-.022,0c.576,1.073,1.144,2.145,1.723,3.221l.059-.045C108.061,394.32,107.478,393.251,106.891,392.19ZM105.4,343.282c.152.683.308,1.369.46,2.056q.379-.969.75-1.945A7.935,7.935,0,0,0,105.4,343.282ZM102.45,354.3c.2-2.776.383-5.559.6-8.336a10.213,10.213,0,0,1-.531,1.373c-.847,1.741-1.749,3.455-2.607,5.192-.03.672-.045,1.3-.067,1.956.635.468,1.3.935,2.005,1.429C102.053,355.378,102.257,354.843,102.45,354.3Zm-.847,52.852c-.019,1.447-.033,2.884-.056,4.242l9.551-4.257c.356-.88.706-1.763,1.058-2.642-3.49-1.147-6.658-2.182-9.673-3.181,3.873-1.132,6.6-1.518,8.682-1.073q-1.287-2.41-2.573-4.828l-4.994,3.912c-.62-1.084-1.236-2.178-1.853-3.273-.037,2.642-.067,5.263-.1,7.831,1.237.675,2.477,1.351,3.717,2.011-.594.9-1.181,1.793-1.779,2.694C102.926,408.111,102.261,407.632,101.6,407.154Zm8.036-61.036c-.706.657-1.4,1.336-2.035,2.056.364.412.724.846,1.1,1.269.836-.416,1.645-.824,2.473-1.243-.408-.074-.828-.13-1.244-.2C109.832,347.372,109.732,346.741,109.639,346.118ZM99.506,364.7c-.071,2.479-1.337,5.4-.631,7.72,1.3-.015,2.6-.078,3.892.022a4.544,4.544,0,0,1,.809.245,18.189,18.189,0,0,1-1.723-5.645c-.23-.111-.453-.226-.676-.338a6.763,6.763,0,0,1-1.426-1.347c.108-.512.219-1.021.327-1.525.624.111,1.233.215,1.834.312.007-.089.011-.174.019-.267-.65-.969-1.307-1.96-1.942-2.917.082-.208.16-.412.23-.62-.189-.13-.371-.256-.557-.382C99.614,361.527,99.55,363.138,99.506,364.7Zm20.887,1.381.041.022.089.015c1.2-1.622,2.425-3.21,3.632-4.825.4.4.809.772,1.207,1.165q-.986,2.021-2,4.038l18.578-8.295a10.214,10.214,0,0,0,1.051-3.8c.772.527,1.548,1.05,2.317,1.581l-.271.835,3.609-1.611c.085-.39.178-.783.26-1.169a108.853,108.853,0,0,1-12.4-6.669c.3.293.6.586.9.876-.717,1.692-1.407,3.31-2.042,4.817,1.99.2,3.984.4,6.082.616-.732,1.228-1.188,2.561-1.545,2.531-2.755-.23-5.485-.724-8.221-1.128q.318.557.646,1.113a66.771,66.771,0,0,1-7.074,4.038C122.517,361.412,119.984,362.422,120.393,366.077Zm-6.6-6.677c.977-.557,1.983-1.136,3-1.718-.5-1.574-1-3.14-1.493-4.706-.743-.338-1.522-.687-2.406-1.095C112.7,353.967,113.212,356.454,113.791,359.4Zm9.966-8.536c.249.323.5.649.728.931a39.541,39.541,0,0,1,2.625,4.376c.215.349.78.475,1.444.835-.063-.883-.126-1.681-.186-2.483-.353-.048-.72-.1-1.073-.148-.171-.464-.338-.935-.52-1.4q4.734-2.889,9.476-5.779a89.59,89.59,0,0,1-11.155-8.228C124.667,342.741,124.233,346.619,123.757,350.865Zm-12.28,20.928c-.479-.23-.954-.475-1.433-.709-.319.579-.635,1.173-.958,1.774Zm6.487-17.6c-.371,1.139-.706,2.294-1.069,3.433,1.244-.709,2.477-1.414,3.814-2.182C119.643,354.958,118.781,354.561,117.965,354.19Zm-5.392-8.755c-.089.731-.163,1.455-.241,2.186q1.587-.8,3.123-1.585a6.19,6.19,0,0,1,.1-1.191c.371-1.425,1.4-2.5,2.135-3.722.453,1.035.947,2.056,1.355,3.114.327-.16.676-.341,1-.508.858-2.242,1.76-4.617,2.659-6.966-1.1-1.072-1.745-1.8-1.868-1.941-1.63-2.279-3.409-4.992-5.247-7.9-.052,5.2.464,9.62-.72,12.685a11.69,11.69,0,0,1-2.027,3.214c-.033.33-.067.661-.108,1,.342.4.7.779,1.014,1.214-.29.219-.672.649-.809.575S112.688,345.491,112.573,345.435Zm37.37-3.57c.542.067,1.077.186,1.615.267.252-1.121.49-2.2.761-3.381-2.629,1.626-4.189,2.587-5.741,3.537.813-2.182,1.348-4.843,2.191-6.9-1.56.531-2.919-.011-3.814-3.388-2.5-.653-4.538-1.184-6.5-1.7a14.058,14.058,0,0,1-2.488,5.133c1.979,1.277,4.144,2.479,4.5,5.689,1.2-2.683,1.69-3.793,2.622-5.867.46,2.234,1.236,3.63.839,4.457a31.074,31.074,0,0,1-3.286,4.81c2.714,1.625,5.882,3.277,9.3,4.9.182-.831.375-1.689.561-2.535-1.3-.672-2.592-1.351-4.029-2.1C147.853,343.561,149.015,341.75,149.943,341.865Zm-10.858,1.726a13.2,13.2,0,0,0-1.779-1.7,6.683,6.683,0,0,0-3.026-1.511C135.721,341.408,137.322,342.488,139.086,343.59Z" transform="translate(1506.814 -190.595)"/></g></svg>