<svg xmlns="http://www.w3.org/2000/svg" width="45.172" height="48" viewBox="0 0 45.172 48"><defs><style>.a{isolation:isolate;}.b{fill:#58595b;}</style></defs><g class="a" transform="translate(566.689 -454.177) rotate(90)"><path class="b" d="M39.531,45.172a2.823,2.823,0,1,1,0-5.647h2.821V5.649H39.531a2.824,2.824,0,1,1,0-5.649h5.645A2.834,2.834,0,0,1,48,2.824V42.347a2.833,2.833,0,0,1-2.824,2.824ZM21.49,36.188a2.824,2.824,0,0,1-.688-3.933l4.853-6.9a2,2,0,0,1-.243.053H2.824a2.823,2.823,0,1,1,0-5.645h22.59l-5.085-6.78A2.822,2.822,0,0,1,24.847,9.6l8.469,11.294a2.81,2.81,0,0,1,.053,3.313L25.422,35.5a2.817,2.817,0,0,1-3.931.686Z" transform="translate(454.177 521.518)"/></g></svg>