<svg xmlns="http://www.w3.org/2000/svg" width="30" height="23.999" viewBox="0 0 30 23.999"><defs><style>.a{isolation:isolate;}.b{fill:#f7f7f7;}</style></defs><g class="a" transform="translate(-582.21 -521.518)"><path class="b" d="M25.5,24H4.5A4.5,4.5,0,0,1,0,19.5V4.5A4.505,4.505,0,0,1,4.5,0h21A4.505,4.505,0,0,1,30,4.5v15A4.5,4.5,0,0,1,25.5,24ZM3,4.874V19.5A1.5,1.5,0,0,0,4.5,21h21A1.5,1.5,0,0,0,27,19.5V4.874L15.9,13.2a1.487,1.487,0,0,1-.9.3,1.506,1.506,0,0,1-.9-.3L3,4.874ZM5.5,3,15,10.125,24.5,3Z" transform="translate(582.21 521.518)"/></g></svg>