<svg xmlns="http://www.w3.org/2000/svg" width="38.403" height="48" viewBox="0 0 38.403 48"><defs><style>.a{isolation:isolate;}.b{fill:#58595b;}</style></defs><g class="a" transform="translate(-66.038 -389.454)"><path class="b" d="M32.27,48H6.131A6.073,6.073,0,0,1,0,42V6A6.073,6.073,0,0,1,6.131,0h16.8a2.415,2.415,0,0,1,1.779.785l13.069,14.4A2.4,2.4,0,0,1,38.4,16.8V42A6.074,6.074,0,0,1,32.27,48ZM6.131,4.8A1.272,1.272,0,0,0,4.8,6V42a1.274,1.274,0,0,0,1.332,1.2H32.27A1.275,1.275,0,0,0,33.6,42V19.2H25.716A6.689,6.689,0,0,1,19.2,12.36V4.8ZM24,7.148V12.36A1.9,1.9,0,0,0,25.716,14.4h4.868ZM26.4,38.4H12a2.4,2.4,0,1,1,0-4.8H26.4a2.4,2.4,0,0,1,0,4.8Zm-7.2-9.6H12A2.4,2.4,0,1,1,12,24h7.2a2.4,2.4,0,1,1,0,4.8Z" transform="translate(66.038 389.454)"/></g></svg>